<svg width="20" height="21" viewBox="0 0 20 21" fill="none" xmlns="http://www.w3.org/2000/svg">
<path d="M3.4464 17.7355C2.12176 16.3493 2.1959 14.0182 3.61176 12.5366L6.9237 9.07092L5.45187 7.53077L2.13993 10.9965C-0.145311 13.3878 -0.264795 17.1444 1.87322 19.3817C4.01125 21.6189 7.60114 21.4939 9.88638 19.1026L13.1983 15.6369L11.7265 14.0967L8.41455 17.5624C6.9987 19.044 4.77104 19.1216 3.4464 17.7355ZM7.61579 14.9937L14.2397 8.06229L12.6904 6.44107L6.0665 13.3725L7.61579 14.9937ZM10.4198 2.3322L7.10785 5.79791L8.57967 7.33807L11.8916 3.87236C13.3075 2.39077 15.5351 2.31318 16.8598 3.69932C18.1844 5.08547 18.1103 7.41655 16.6944 8.89814L13.3825 12.3639L14.8543 13.904L18.1662 10.4383C20.4515 8.04696 20.571 4.2904 18.4329 2.05311C16.2949 -0.184171 12.705 -0.0591396 10.4198 2.3322Z" fill="#262626"/>
</svg>
