<svg width="305" height="69" viewBox="0 0 305 69" fill="none" xmlns="http://www.w3.org/2000/svg">
<g style="mix-blend-mode:luminosity">
<path d="M267.719 37.474C267.719 39.2628 267.785 39.3102 269.39 39.3102H274.755C274.982 39.3102 275.176 39.5026 275.176 39.7366V41.099C275.176 41.4003 275.069 41.5075 274.755 41.5481C274.074 41.6563 272.696 41.8466 270.177 41.8466C266.655 41.8466 264.794 41.8712 264.794 37.474V30.7234C264.794 26.3271 266.655 26.3525 270.177 26.3525C272.696 26.3525 274.074 26.5449 274.755 26.6493C275.069 26.6899 275.176 26.799 275.176 27.0991V28.4618C275.176 28.6948 274.982 28.89 274.755 28.89H269.39C267.785 28.89 267.719 28.9383 267.719 30.7234V32.6797H274.498C274.733 32.6797 274.918 32.874 274.918 33.1052V34.6459C274.918 34.878 274.733 35.0704 274.498 35.0704H267.719V37.474ZM299.044 41.8569C297.171 41.8569 295.274 41.5321 294.256 41.2961C294.046 41.2534 293.854 41.1067 293.854 40.8716V39.335C293.854 39.1018 294.046 38.9284 294.256 38.9284H294.299C295.147 39.0356 297.129 39.314 299.087 39.314C300.97 39.314 301.548 38.6346 301.548 37.3975C301.548 35.7969 297.755 34.912 295.904 34.1428C294.062 33.3762 293.409 31.9047 293.409 30.4134C293.409 28.0647 295.284 26.3593 299.224 26.3593C301.242 26.3593 303.091 26.7457 303.811 26.9192C304.024 26.9609 304.191 27.1106 304.191 27.3228V28.9022C304.191 29.1136 304.046 29.2859 303.831 29.2859H303.79C302.391 29.159 300.941 28.8985 299.1 28.8985C297.53 28.8985 296.356 29.4537 296.356 30.4134C296.356 31.1155 297.151 31.7608 298.092 32.137C299.033 32.5103 300.265 32.9944 301.674 33.5648C303.458 34.2925 304.615 35.3508 304.615 37.3973C304.615 39.5507 303.281 41.8569 299.044 41.8569ZM287.782 31.1734C287.782 29.5729 286.549 28.89 284.427 28.89C283.985 28.89 282.057 28.9325 281.676 28.9752V33.6019C282.019 33.6235 284.073 33.6662 284.427 33.6662C286.614 33.6662 287.782 33.2427 287.782 31.3666V31.1734ZM290.961 41.6779H288.374C288.141 41.6779 288.058 41.461 287.953 41.2506L284.899 36.0766H284.427C283.879 36.0766 282.166 36.0158 281.676 35.9912V41.2506C281.676 41.4838 281.508 41.6779 281.277 41.6779H279.16C278.927 41.6779 278.736 41.4838 278.736 41.2506V27.2678C278.736 26.8396 278.987 26.6899 279.412 26.6284C280.512 26.4578 282.884 26.3527 284.427 26.3527C287.692 26.3527 290.703 27.5265 290.703 31.1734V31.3666C290.703 33.6245 289.579 34.8618 287.842 35.5411L291.171 41.2506C291.213 41.3151 291.213 41.3756 291.213 41.423C291.213 41.569 291.128 41.6779 290.961 41.6779ZM262.195 28.9951H257.969V41.2506C257.969 41.4838 257.775 41.6779 257.54 41.6779H255.445C255.212 41.6779 255.02 41.4838 255.02 41.2506V28.9951H250.792C250.562 28.9951 250.37 28.8483 250.37 28.6124V26.9269C250.37 26.6899 250.562 26.5212 250.792 26.5212H262.195C262.424 26.5212 262.615 26.6899 262.615 26.9269V28.6124C262.615 28.8483 262.424 28.9951 262.195 28.9951ZM241.918 41.8466C238.51 41.8466 235.574 40.3533 235.574 35.8065V26.9269C235.574 26.6899 235.767 26.5212 236.001 26.5212H238.093C238.328 26.5212 238.517 26.6899 238.517 26.9269V35.8065C238.517 38.2406 239.634 39.3937 241.918 39.3937C244.207 39.3937 245.322 38.2406 245.322 35.8065V26.9269C245.322 26.6899 245.511 26.5212 245.744 26.5212H247.841C248.076 26.5212 248.267 26.6899 248.267 26.9269V35.8065C248.267 40.3535 245.329 41.8466 241.918 41.8466ZM224.95 37.474C224.95 39.2628 225.018 39.3102 226.62 39.3102H231.983C232.096 39.3109 232.203 39.3561 232.283 39.436C232.362 39.5158 232.407 39.6239 232.407 39.7366V41.099C232.407 41.4003 232.3 41.5075 231.983 41.5481C231.305 41.6563 229.925 41.8466 227.406 41.8466C223.89 41.8466 222.026 41.8712 222.026 37.474V30.7234C222.026 26.3271 223.89 26.3525 227.406 26.3525C229.925 26.3525 231.305 26.5449 231.983 26.6493C232.3 26.6899 232.407 26.799 232.407 27.0991V28.4618C232.407 28.6948 232.216 28.89 231.983 28.89H226.62C225.018 28.89 224.95 28.9383 224.95 30.7234V32.6797H231.729C231.962 32.6797 232.153 32.874 232.153 33.1052V34.6459C232.153 34.7583 232.108 34.8659 232.028 34.9454C231.949 35.0249 231.841 35.0698 231.729 35.0704H224.95V37.474ZM215.871 31.1734C215.871 29.5729 214.638 28.89 212.52 28.89C212.074 28.89 210.147 28.9325 209.768 28.9752V33.6019C210.104 33.6235 212.156 33.6662 212.52 33.6662C214.699 33.6662 215.871 33.2427 215.871 31.3666V31.1734ZM219.05 41.6779H216.463C216.232 41.6779 216.145 41.461 216.04 41.2506L212.988 36.0766H212.52C211.967 36.0766 210.255 36.0158 209.768 35.9912V41.2506C209.768 41.4838 209.597 41.6779 209.364 41.6779H207.246C207.015 41.6779 206.824 41.4838 206.824 41.2506V27.2678C206.824 26.8396 207.075 26.6899 207.501 26.6284C208.603 26.4578 210.972 26.3527 212.52 26.3527C215.781 26.3527 218.794 27.5265 218.794 31.1734V31.3666C218.794 33.6245 217.672 34.8618 215.935 35.5411L219.258 41.2506C219.303 41.3151 219.303 41.3756 219.303 41.423C219.303 41.569 219.218 41.6779 219.05 41.6779ZM177.894 33.0076C177.894 30.1917 176.204 28.9325 174.128 28.9325C172.052 28.9325 170.362 30.1917 170.362 33.0076V35.1906C170.362 38.0074 172.052 39.2647 174.128 39.2647C176.204 39.2647 177.894 38.0074 177.894 35.1906V33.0076ZM174.128 41.8466C170.633 41.8466 167.398 39.8844 167.398 35.1906V33.0076C167.398 28.3149 170.634 26.3527 174.128 26.3527C177.622 26.3527 180.857 28.3149 180.857 33.0076V35.1906C180.857 39.8844 177.622 41.8466 174.128 41.8466ZM159.155 41.8569C157.285 41.8569 155.385 41.5321 154.368 41.2961C154.156 41.2534 153.965 41.1067 153.965 40.8716V39.335C153.965 39.1018 154.156 38.9284 154.368 38.9284H154.41C155.256 39.0356 157.239 39.314 159.198 39.314C161.084 39.314 161.655 38.6346 161.655 37.3975C161.655 35.7969 157.869 34.912 156.019 34.1428C154.173 33.3762 153.521 31.9047 153.521 30.4134C153.521 28.0647 155.398 26.3593 159.337 26.3593C161.356 26.3593 163.205 26.7457 163.922 26.9192C164.136 26.9609 164.302 27.1106 164.302 27.3228V28.9022C164.302 29.1136 164.156 29.2859 163.945 29.2859H163.903C162.502 29.159 161.052 28.8985 159.208 28.8985C157.645 28.8985 156.465 29.4537 156.465 30.4134C156.465 31.1155 157.263 31.7627 158.2 32.137C159.14 32.5103 160.377 32.9944 161.784 33.5648C163.573 34.2925 164.729 35.3508 164.729 37.3973C164.729 39.5507 163.395 41.8569 159.155 41.8569ZM196.236 41.6779H194.093C193.585 41.6779 193.139 41.6779 192.806 40.9105L187.059 31.2159C186.998 31.089 186.933 31.0425 186.87 31.0425C186.809 31.0425 186.763 31.089 186.763 31.2159V41.2506C186.763 41.4838 186.593 41.6779 186.36 41.6779H184.563C184.326 41.6779 184.14 41.4838 184.14 41.2506V27.3739C184.14 26.9041 184.517 26.5212 184.983 26.5212H187.272C187.717 26.5212 187.948 26.6491 188.206 27.2073L194.18 37.474C194.22 37.5782 194.283 37.6455 194.349 37.6455C194.392 37.6455 194.452 37.5782 194.452 37.4522V26.9269C194.452 26.6899 194.621 26.5212 194.856 26.5212H196.678C196.911 26.5212 197.083 26.6899 197.083 26.9269V40.8233C197.083 41.2942 196.701 41.6779 196.236 41.6779ZM149.708 41.6779H147.568C147.379 41.6779 147.232 41.461 147.232 41.2506V32.0251C147.232 31.8765 147.209 31.8129 147.163 31.8129C147.147 31.8129 147.104 31.8763 147.059 31.9399L143.639 39.5688C143.514 39.8011 143.24 39.9327 142.966 39.9327H141.864C141.588 39.9327 141.313 39.8011 141.189 39.5688L137.746 31.9399C137.702 31.8763 137.658 31.8129 137.64 31.8129C137.597 31.8129 137.575 31.8763 137.575 32.0251V41.2506C137.575 41.461 137.426 41.6779 137.235 41.6779H135.098C134.906 41.6779 134.735 41.569 134.735 41.3578V27.3739C134.735 26.9041 135.118 26.5212 135.583 26.5212H137.321C137.658 26.5212 137.956 26.7335 138.105 27.0328L142.169 35.3677C142.273 35.5592 142.317 35.6662 142.406 35.6662C142.489 35.6662 142.531 35.5592 142.638 35.3677L146.7 27.0329C146.848 26.7335 147.147 26.5214 147.484 26.5214H149.222C149.688 26.5214 150.069 26.9041 150.069 27.3739V41.3578C150.069 41.569 149.899 41.6779 149.708 41.6779ZM128.489 33.0076C128.489 30.1917 126.801 28.9325 124.724 28.9325C122.649 28.9325 120.959 30.1917 120.959 33.0076V35.1906C120.959 38.0074 122.649 39.2647 124.724 39.2647C126.801 39.2647 128.489 38.0074 128.489 35.1906V33.0076ZM124.724 41.8466C121.23 41.8466 117.995 39.8844 117.995 35.1906V33.0076C117.995 28.3149 121.23 26.3527 124.724 26.3527C128.22 26.3527 131.457 28.3149 131.457 33.0076V35.1906C131.457 39.8844 128.22 41.8466 124.724 41.8466ZM114.227 41.6779H112.132C112.019 41.6774 111.911 41.6323 111.83 41.5523C111.75 41.4723 111.705 41.3638 111.704 41.2506V35.0704H104.995V41.2506C104.995 41.4838 104.805 41.6779 104.576 41.6779H102.477C102.242 41.6779 102.052 41.4838 102.052 41.2506V26.9267C102.052 26.6899 102.242 26.5212 102.477 26.5212H104.575C104.805 26.5212 104.995 26.6899 104.995 26.9269V32.4676H111.704V26.9269C111.704 26.6899 111.896 26.5212 112.132 26.5212H114.227C114.457 26.5212 114.649 26.6899 114.649 26.9269V41.2508C114.649 41.4838 114.457 41.6779 114.227 41.6779ZM98.944 28.9951H94.7179V41.2506C94.7177 41.3637 94.6728 41.472 94.5929 41.5521C94.5131 41.6322 94.4048 41.6774 94.2917 41.6779H92.1988C91.9656 41.6779 91.7757 41.4838 91.7757 41.2506V28.9951H87.5447C87.3124 28.9951 87.1204 28.8483 87.1204 28.6124V26.9269C87.1204 26.6899 87.3122 26.5212 87.5447 26.5212H98.944C99.1772 26.5212 99.3681 26.6899 99.3681 26.9269V28.6124C99.3681 28.8483 99.1772 28.9951 98.944 28.9951Z" fill="#827F80"/>
<path d="M33.5583 22.588C32.9527 22.9171 32.7364 23.6844 33.0562 24.2882C33.3778 24.9069 34.1432 25.127 34.7488 24.8035C35.3544 24.4687 35.5764 23.7089 35.2529 23.0939C35.031 22.6764 34.5983 22.4356 34.1526 22.4356C33.9448 22.4355 33.7404 22.4879 33.5583 22.588ZM36.9117 22.6406C36.37 22.9303 36.1782 23.6055 36.4622 24.1509C36.7481 24.6925 37.4195 24.8957 37.9555 24.5985C38.5047 24.3032 38.6965 23.6299 38.4107 23.0864C38.3181 22.9095 38.1789 22.7613 38.0082 22.6579C37.8375 22.5544 37.6417 22.4997 37.4421 22.4996C37.2562 22.5007 37.0736 22.5493 36.9117 22.6406ZM30.376 23.5396C29.6914 23.9139 29.4319 24.7791 29.808 25.4655C30.1804 26.1558 31.0343 26.4247 31.7283 26.0486C32.4148 25.6743 32.6649 24.8091 32.2963 24.1227C32.1768 23.8948 31.9974 23.7039 31.7773 23.5706C31.5571 23.4373 31.3048 23.3668 31.0475 23.3666C30.8218 23.3666 30.5904 23.423 30.376 23.5396ZM40.1297 23.6976C39.6557 23.9628 39.4733 24.5628 39.7272 25.033C39.9811 25.5069 40.583 25.6818 41.04 25.4223C41.5215 25.1646 41.6945 24.5722 41.4349 24.1001C41.2638 23.7691 40.9253 23.5829 40.5773 23.5829C40.4209 23.583 40.2669 23.6224 40.1297 23.6976ZM27.852 25.6912C27.237 26.0298 27.0113 26.7802 27.3424 27.4027C27.6734 28.0083 28.4182 28.2359 29.0257 27.9068C29.6426 27.5776 29.8663 26.8103 29.5391 26.2066C29.4332 26.0058 29.2747 25.8376 29.0805 25.72C28.8864 25.6024 28.6639 25.5398 28.437 25.5389C28.2321 25.5385 28.0307 25.591 27.852 25.6912ZM42.8981 25.7063C42.4863 25.9338 42.3377 26.4398 42.5521 26.8441C42.7703 27.2485 43.2724 27.3971 43.6881 27.1883C44.0887 26.9589 44.2467 26.4529 44.0266 26.0448C43.8724 25.7646 43.5847 25.6028 43.2913 25.6028C43.1536 25.6033 43.0182 25.6389 42.8981 25.7063ZM44.9444 28.4522C44.6209 28.6421 44.4874 29.0766 44.6736 29.4076C44.8541 29.748 45.2774 29.8703 45.6046 29.6897C45.945 29.5073 46.071 29.0898 45.8867 28.7493C45.8274 28.6361 45.7382 28.5414 45.6287 28.4754C45.5193 28.4094 45.3938 28.3747 45.266 28.3751C45.1543 28.3751 45.0441 28.4015 44.9444 28.4522ZM26.0503 28.5406C25.5124 28.8359 25.313 29.5167 25.5952 30.0565C25.8923 30.5944 26.5637 30.8031 27.0997 30.506C27.6395 30.2182 27.8464 29.5374 27.5549 28.992C27.4581 28.8161 27.316 28.6692 27.1434 28.5667C26.9708 28.4642 26.7739 28.4097 26.5731 28.4089C26.3907 28.4095 26.2112 28.4547 26.0503 28.5406ZM45.9864 31.4576C45.5745 31.6739 45.4203 32.1911 45.6441 32.5974C45.8547 33.0036 46.3701 33.1541 46.7594 32.9453C47.1694 32.7065 47.3255 32.1968 47.1111 31.7943C47.0395 31.6621 46.9336 31.5516 46.8045 31.4744C46.6755 31.3973 46.5279 31.3564 46.3776 31.3561C46.2407 31.3563 46.1061 31.3912 45.9864 31.4576ZM25.1701 31.8413C24.7036 32.0933 24.5306 32.6877 24.7808 33.1579C25.0403 33.6374 25.6253 33.8124 26.0992 33.5566C26.5675 33.2989 26.7462 32.6971 26.4923 32.2306C26.4106 32.0759 26.2883 31.9463 26.1385 31.8559C25.9887 31.7654 25.8171 31.7175 25.6422 31.7172C25.4768 31.718 25.3144 31.7607 25.1701 31.8413ZM45.9901 34.6437C45.5162 34.907 45.3488 35.4938 45.5933 35.9771C45.8434 36.4435 46.4491 36.6147 46.9155 36.3646C47.3876 36.1069 47.5568 35.5126 47.301 35.0405C47.2204 34.8853 47.0986 34.7552 46.949 34.6647C46.7994 34.5741 46.6277 34.5265 46.4528 34.5271C46.2967 34.5271 46.1406 34.5665 45.9901 34.6437ZM25.3093 35.2643C24.9105 35.4881 24.7601 36.0016 24.9783 36.4059C25.2002 36.8178 25.7061 36.9608 26.1029 36.7351C26.5073 36.5282 26.6709 36.0072 26.4415 35.6029C26.2854 35.3264 26.0014 35.1646 25.7042 35.1646C25.5726 35.1646 25.4372 35.1966 25.3093 35.2643ZM44.9839 37.6886C44.4404 37.9764 44.2448 38.6685 44.5307 39.2102C44.826 39.7481 45.4974 39.9512 46.0259 39.6615C46.5788 39.3606 46.7688 38.6892 46.4886 38.1419C46.393 37.965 46.2516 37.8172 46.0792 37.714C45.9067 37.6107 45.7096 37.5558 45.5086 37.5551C45.3253 37.5545 45.1447 37.6004 44.9839 37.6886ZM26.4716 38.5105C26.1331 38.6892 26.0108 39.1142 26.1932 39.4641C26.3738 39.7969 26.7913 39.9267 27.1355 39.7481C27.4703 39.5562 27.5963 39.133 27.412 38.7945C27.3516 38.6835 27.2625 38.5909 27.1539 38.5263C27.0454 38.4618 26.9214 38.4277 26.7951 38.4278C26.682 38.4277 26.5708 38.4562 26.4716 38.5105ZM43.0524 40.2935C42.443 40.6264 42.2211 41.39 42.5484 41.9974C42.8681 42.6087 43.6279 42.8363 44.2392 42.4996C44.8448 42.1836 45.0686 41.4069 44.7394 40.8013C44.51 40.3838 44.0812 40.1393 43.6392 40.1393C43.4336 40.1394 43.2315 40.1925 43.0524 40.2935ZM28.4013 41.0176C27.995 41.232 27.8445 41.7473 28.0627 42.1517C28.1132 42.2486 28.1827 42.3343 28.267 42.4038C28.3513 42.4733 28.4488 42.5251 28.5535 42.5562C28.6583 42.5873 28.7682 42.5969 28.8768 42.5846C28.9854 42.5723 29.0904 42.5383 29.1855 42.4846C29.588 42.2739 29.7403 41.7642 29.524 41.3561C29.3773 41.0778 29.0896 40.9216 28.7924 40.9216C28.6561 40.921 28.5218 40.9539 28.4013 41.0176ZM40.3535 42.1573C40.1891 42.2458 40.0439 42.366 39.9262 42.5109C39.8085 42.6559 39.7206 42.8227 39.6678 43.0018C39.615 43.1809 39.5982 43.3687 39.6184 43.5543C39.6386 43.7399 39.6954 43.9197 39.7855 44.0832C40.1579 44.7735 41.0156 45.0274 41.7058 44.6625C42.3885 44.2826 42.6424 43.4137 42.2756 42.7385C42.0198 42.257 41.5327 41.9805 41.0287 41.9805C40.8011 41.9805 40.5698 42.0369 40.3535 42.1573ZM31.0418 42.7761C30.5604 43.0375 30.3892 43.6224 30.6487 44.0964C30.8932 44.5741 31.4857 44.7565 31.9559 44.5007C32.4298 44.2318 32.6066 43.6356 32.3527 43.1654C32.2679 43.0125 32.144 42.8849 31.9936 42.7956C31.8432 42.7064 31.6718 42.6588 31.497 42.6576C31.3375 42.6563 31.1805 42.6971 31.0418 42.7761ZM37.333 43.4005C36.7236 43.7259 36.5111 44.4857 36.844 45.1045C37.1599 45.7101 37.9141 45.9508 38.5235 45.6066C39.1348 45.285 39.353 44.5196 39.0295 43.9102C38.9223 43.711 38.7633 43.5445 38.5693 43.4283C38.3752 43.3121 38.1535 43.2505 37.9273 43.25C37.7198 43.2503 37.5156 43.302 37.333 43.4005ZM34.1131 43.5961C33.5733 43.8895 33.3815 44.5722 33.6674 45.1101C33.9627 45.6555 34.6341 45.8586 35.1739 45.5671C35.7193 45.2813 35.9168 44.5967 35.6253 44.0475C35.4278 43.6751 35.0422 43.4682 34.6435 43.4682C34.459 43.4671 34.2769 43.511 34.1131 43.5961Z" fill="url(#paint0_linear_171_3)"/>
<path d="M34.1094 19.1556C33.9891 19.5603 34.0342 19.9963 34.2348 20.3679C34.4354 20.7395 34.7751 21.0164 35.1795 21.1379C36.0202 21.388 36.8985 20.8972 37.1468 20.0602C37.3988 19.2139 36.9173 18.3205 36.0804 18.076C35.9329 18.0307 35.7795 18.0079 35.6253 18.0083C34.9369 18.0083 34.3144 18.4616 34.1094 19.1556ZM38.3542 19.6709C38.074 20.6489 38.6081 21.6607 39.588 21.9504C40.5529 22.2381 41.5628 21.6852 41.8431 20.7185C42.1365 19.7367 41.5835 18.7136 40.613 18.4258C40.4467 18.3777 40.2745 18.353 40.1014 18.3525C39.3115 18.3525 38.5837 18.8735 38.3542 19.6709ZM29.8475 20.0433C29.6293 20.7975 30.0601 21.5836 30.8067 21.8056C30.9847 21.8587 31.1714 21.8759 31.3561 21.8563C31.5407 21.8366 31.7196 21.7804 31.8823 21.691C32.0451 21.6015 32.1885 21.4807 32.3041 21.3353C32.4197 21.19 32.5053 21.0232 32.5558 20.8445C32.7683 20.096 32.3395 19.306 31.6004 19.0841C31.4687 19.0465 31.3371 19.0277 31.2073 19.0277C30.9017 19.0286 30.6045 19.1279 30.3596 19.3108C30.1147 19.4937 29.9352 19.7505 29.8475 20.0433ZM42.6518 21.6871C42.4016 22.5315 42.8868 23.4174 43.7257 23.6675C44.5664 23.9177 45.4466 23.4249 45.693 22.5823C45.9431 21.7379 45.4635 20.8501 44.6228 20.6C44.4783 20.5561 44.3281 20.5339 44.1771 20.5342C43.4887 20.5342 42.8587 20.9931 42.6518 21.6871ZM26.1838 22.3077C26.0108 22.9039 26.3418 23.5189 26.9342 23.6957C27.521 23.8688 28.1379 23.5265 28.3129 22.9378C28.484 22.3472 28.1454 21.7266 27.5568 21.5498C27.4556 21.5186 27.3504 21.5027 27.2445 21.5028C26.7631 21.5028 26.323 21.8206 26.1838 22.3077ZM46.0935 24.8486C45.8697 25.6104 46.3023 26.3909 47.0452 26.6128C47.7957 26.8328 48.5724 26.3965 48.7962 25.6461C49.02 24.9013 48.5931 24.1114 47.8408 23.8932C47.7121 23.8546 47.5784 23.8349 47.444 23.8349C46.8402 23.8349 46.2797 24.2355 46.0935 24.8486ZM23.2856 25.663C23.1426 26.137 23.421 26.6429 23.8949 26.7802C24.3708 26.9212 24.8635 26.6485 25.0083 26.1708C25.155 25.6969 24.8748 25.1928 24.4027 25.0461C24.3225 25.0237 24.2396 25.0123 24.1563 25.0123C23.9602 25.0115 23.7692 25.0746 23.6121 25.192C23.455 25.3094 23.3404 25.4747 23.2856 25.663ZM48.5404 28.9167C48.358 29.5205 48.7078 30.1373 49.2909 30.3104C49.8833 30.4853 50.4964 30.1468 50.6695 29.5524C50.8425 28.9581 50.5077 28.3393 49.9209 28.1682C49.8179 28.137 49.7107 28.1211 49.603 28.1212C49.1216 28.1212 48.6777 28.4371 48.5404 28.9167ZM21.5797 29.8289C21.4762 30.19 21.6719 30.5699 22.0292 30.6734C22.3884 30.7787 22.759 30.5699 22.8643 30.2126C22.9677 29.8552 22.7665 29.481 22.4072 29.3719C22.3459 29.355 22.2827 29.3461 22.2191 29.3455C22.0745 29.3457 21.9339 29.393 21.8185 29.4802C21.7031 29.5674 21.6193 29.6898 21.5797 29.8289ZM49.5786 33.4419C49.4357 33.9177 49.7065 34.4274 50.188 34.5647C50.6657 34.7076 51.1622 34.4311 51.3033 33.9497C51.4406 33.4776 51.1735 32.9717 50.6939 32.8268C50.6131 32.8041 50.5296 32.792 50.4456 32.7911C50.0525 32.7911 49.6877 33.0469 49.5786 33.4419ZM20.7747 34.2656C20.6318 34.7415 20.912 35.2417 21.386 35.3847C21.8599 35.5276 22.3583 35.2587 22.4994 34.7753C22.568 34.5459 22.5427 34.2986 22.4292 34.0877C22.3156 33.8769 22.1231 33.7197 21.8938 33.6506C21.8134 33.6259 21.7296 33.6138 21.6455 33.6149C21.2562 33.6149 20.897 33.8744 20.7747 34.2656ZM49.2137 38.0102C49.1159 38.3657 49.3134 38.7475 49.6652 38.8472C50.0263 38.9525 50.3949 38.7494 50.4964 38.3883C50.6055 38.0328 50.4024 37.6529 50.0451 37.5476C49.9856 37.5311 49.9242 37.5229 49.8626 37.5231C49.7165 37.5241 49.5747 37.5719 49.4578 37.6596C49.341 37.7473 49.2554 37.8702 49.2137 38.0102ZM21.416 38.6704C21.2505 39.2609 21.5684 39.8854 22.1665 40.0584C22.7477 40.2371 23.3683 39.891 23.5413 39.2948C23.7125 38.7042 23.374 38.0836 22.7909 37.92C22.6849 37.8872 22.5746 37.8707 22.4636 37.8711C22.2255 37.8708 21.9939 37.949 21.8046 38.0934C21.6153 38.2379 21.4787 38.4406 21.416 38.6704ZM47.0716 42.0445C46.9324 42.5259 47.2051 43.03 47.6734 43.1654C48.1567 43.3083 48.6571 43.0319 48.7962 42.556C48.9335 42.0821 48.6627 41.5724 48.1869 41.4295C48.0732 41.3966 47.9543 41.3864 47.8367 41.3996C47.7192 41.4127 47.6054 41.4488 47.5018 41.5059C47.3983 41.5631 47.307 41.64 47.2332 41.7324C47.1593 41.8248 47.1044 41.9309 47.0716 42.0445ZM23.2818 42.5692C23.1746 42.9291 23.2146 43.3168 23.3931 43.6472C23.5715 43.9776 23.8737 44.2237 24.2335 44.3315C24.9876 44.5553 25.7625 44.1227 25.9882 43.3704C26.2082 42.62 25.7738 41.8263 25.0271 41.6025C24.8984 41.5638 24.7647 41.5442 24.6303 41.5442C24.0228 41.5442 23.4661 41.9485 23.2818 42.5692ZM43.767 45.2813C43.5978 45.8699 43.9401 46.4925 44.5231 46.6693C45.108 46.8442 45.7231 46.5019 45.8942 45.917C46.0729 45.3189 45.7362 44.6982 45.1494 44.5252C45.047 44.4942 44.9405 44.4784 44.8335 44.4782C44.352 44.4782 43.91 44.7979 43.767 45.2813ZM26.3888 45.6424C26.1443 46.4793 26.6164 47.367 27.4609 47.6191C28.3034 47.8636 29.1799 47.3783 29.4319 46.5357C29.6726 45.6969 29.1949 44.8017 28.3504 44.5553C28.2 44.5101 28.0495 44.4895 27.9028 44.4895C27.2163 44.4895 26.5901 44.9408 26.3888 45.6424ZM30.2331 47.5081C29.9548 48.4917 30.4964 49.5017 31.4687 49.7913C32.4336 50.0716 33.453 49.513 33.7276 48.5481C34.0116 47.5739 33.4642 46.5527 32.4919 46.2649C32.3252 46.2158 32.1522 46.1911 31.9784 46.1915C31.1885 46.1915 30.4626 46.7069 30.2331 47.5081ZM39.5222 47.3727C39.304 48.1269 39.7385 48.9168 40.4795 49.1349C41.2318 49.3569 42.0104 48.9281 42.2305 48.172C42.4505 47.4272 42.0273 46.6354 41.2769 46.4154C41.1465 46.3752 41.0109 46.3549 40.8744 46.3552C40.5694 46.3561 40.2729 46.4557 40.0291 46.6391C39.7854 46.8225 39.6075 47.0798 39.5222 47.3727ZM34.9275 48.1682C34.683 49.0071 35.1663 49.8873 36.0052 50.1412C36.8477 50.3951 37.7298 49.9079 37.9687 49.0672C38.2132 48.219 37.7411 47.3313 36.9004 47.083C36.7537 47.0403 36.6018 47.0181 36.449 47.0172C35.7625 47.0172 35.1325 47.4686 34.9275 48.1682Z" fill="url(#paint1_linear_171_3)"/>
<path d="M37.1544 13.6772C36.4736 14.407 36.5056 15.5599 37.2353 16.2501C37.9613 16.9404 39.1066 16.9065 39.7856 16.1749C40.4702 15.4395 40.4326 14.2922 39.7085 13.6001C39.3756 13.2838 38.9339 13.1073 38.4747 13.1074C38.2274 13.1073 37.9827 13.1578 37.7556 13.2558C37.5286 13.3538 37.324 13.4972 37.1544 13.6772ZM31.4332 14.123C31.1742 14.4014 31.0356 14.7708 31.0476 15.1508C31.0596 15.5308 31.2212 15.8908 31.4971 16.1523C32.0632 16.6921 32.966 16.662 33.5076 16.0884C34.0399 15.5147 34.0155 14.6026 33.4456 14.0628C33.1822 13.8129 32.8325 13.6741 32.4694 13.6754C32.0914 13.6754 31.7134 13.8258 31.4332 14.123ZM42.761 15.2119C41.9917 16.0338 42.0256 17.3259 42.8418 18.1064C43.6581 18.8832 44.954 18.8418 45.7176 18.0237C46.4849 17.1999 46.451 15.9003 45.6348 15.1292C45.2379 14.753 44.7358 14.5668 44.2374 14.5668C43.6976 14.5668 43.1616 14.785 42.761 15.2119ZM25.9733 16.3479C25.5388 16.8143 25.5595 17.5422 26.0203 17.9879C26.4886 18.4243 27.2146 18.4036 27.6509 17.9372C28.0872 17.4726 28.0628 16.7391 27.6039 16.3009C27.3898 16.0972 27.1057 15.9834 26.8102 15.983C26.6532 15.9836 26.498 16.0163 26.354 16.079C26.2101 16.1417 26.0805 16.2333 25.9733 16.3479ZM47.5042 18.4168C46.6146 19.359 46.6504 20.8448 47.5964 21.7401C48.5349 22.6372 50.017 22.5883 50.8972 21.6517C51.7868 20.6925 51.7435 19.2048 50.805 18.3114C50.3536 17.8826 49.7781 17.6739 49.2063 17.6739C48.5819 17.6739 47.9632 17.9221 47.5042 18.4168ZM21.4388 20.2543C21.2812 20.4209 21.1961 20.6433 21.2025 20.8725C21.2088 21.1018 21.306 21.3191 21.4726 21.4768C21.8224 21.8097 22.3641 21.789 22.6838 21.4429C23.0111 21.095 22.996 20.5477 22.6519 20.2185C22.4903 20.0686 22.278 19.9852 22.0575 19.9853C21.8318 19.9853 21.6062 20.0756 21.4388 20.2543ZM51.3993 23.4121C50.6282 24.2321 50.6639 25.5298 51.4858 26.3066C52.304 27.0852 53.5904 27.0363 54.3559 26.2182C55.1289 25.3944 55.0931 24.1061 54.2675 23.3218C53.8801 22.9513 53.3835 22.767 52.8833 22.767C52.3416 22.767 51.7999 22.9832 51.3993 23.4121ZM17.839 25.0464C17.3989 25.5129 17.4233 26.2426 17.8916 26.6865C18.3487 27.1228 19.0765 27.104 19.5166 26.6432C19.9473 26.1749 19.9304 25.4433 19.4658 25.0032C19.2541 24.7994 18.9717 24.6854 18.6778 24.6853C18.5208 24.6854 18.3654 24.7175 18.2212 24.7795C18.077 24.8416 17.947 24.9324 17.839 25.0464ZM53.5867 29.2631C52.8983 29.9947 52.9341 31.1476 53.6638 31.8341C54.3879 32.53 55.5351 32.4867 56.216 31.757C56.9062 31.0292 56.8686 29.8762 56.1407 29.1841C55.805 28.8676 55.3609 28.6913 54.8994 28.6914C54.4198 28.6914 53.9402 28.8813 53.5867 29.2631ZM15.962 30.6737C15.4335 31.2548 15.4467 32.152 16.0241 32.6955C16.5902 33.2409 17.4967 33.2108 18.0346 32.641C18.5744 32.0673 18.5424 31.1514 17.9763 30.6116C17.712 30.3603 17.3611 30.2203 16.9964 30.2204C16.802 30.2203 16.6097 30.2606 16.4316 30.3386C16.2536 30.4166 16.0937 30.5307 15.962 30.6737ZM54.0399 35.5768C53.5039 36.1524 53.5359 37.0589 54.1039 37.5987C54.2392 37.7283 54.3989 37.8297 54.5739 37.897C54.7488 37.9642 54.9354 37.996 55.1227 37.9904C55.31 37.9848 55.4943 37.9419 55.6649 37.8643C55.8355 37.7868 55.989 37.676 56.1163 37.5385C56.6523 36.9648 56.6335 36.0602 56.0523 35.5148C55.7897 35.2648 55.4407 35.126 55.0781 35.1273C54.8835 35.1271 54.6909 35.1669 54.5123 35.2442C54.3337 35.3216 54.1729 35.4348 54.0399 35.5768ZM15.8585 36.4514C15.1777 37.1793 15.2115 38.3378 15.9375 39.0262C16.1094 39.1904 16.3122 39.3188 16.5342 39.404C16.7561 39.4892 16.9927 39.5294 17.2303 39.5225C17.4679 39.5155 17.7017 39.4613 17.9183 39.3632C18.1348 39.2651 18.3297 39.125 18.4916 38.9509C19.1762 38.2231 19.1424 37.0683 18.4145 36.3724C18.083 36.0537 17.6406 35.8764 17.1807 35.8778C16.9328 35.878 16.6876 35.929 16.4602 36.0276C16.2328 36.1263 16.028 36.2705 15.8585 36.4514ZM52.5616 41.5727C52.1253 42.0373 52.146 42.7745 52.6087 43.2184C52.7194 43.3227 52.8496 43.4039 52.9919 43.4576C53.1341 43.5112 53.2856 43.5361 53.4376 43.5309C53.5896 43.5257 53.739 43.4903 53.8773 43.427C54.0155 43.3637 54.1398 43.2736 54.243 43.162C54.6756 42.6974 54.6587 41.962 54.1941 41.5201C53.9801 41.3179 53.6968 41.2055 53.4024 41.206C53.2446 41.2064 53.0886 41.2392 52.944 41.3023C52.7994 41.3653 52.6693 41.4574 52.5616 41.5727ZM17.7243 41.9978C16.955 42.814 16.9795 44.1118 17.8014 44.8923C18.6232 45.6634 19.9135 45.622 20.6771 44.8039C21.4444 43.9839 21.4087 42.6805 20.5943 41.9113C20.2012 41.5351 19.7028 41.3527 19.2082 41.3527C18.6665 41.3527 18.1249 41.5727 17.7243 41.9978ZM21.1755 46.5661C20.2934 47.5235 20.3348 48.998 21.277 49.8989C22.2155 50.7903 23.6957 50.749 24.5777 49.7992C25.4655 48.8513 25.4203 47.3655 24.4799 46.4683C24.0469 46.057 23.4729 45.8269 22.8756 45.8251C22.255 45.8251 21.6344 46.0753 21.1755 46.5661ZM49.3888 46.773C49.0653 47.1229 49.0822 47.6702 49.4264 47.9974C49.7743 48.3209 50.3141 48.3096 50.6376 47.9541C50.9649 47.61 50.9517 47.0608 50.6 46.7373C50.4434 46.585 50.2335 46.4999 50.0151 46.5003C49.8975 46.5 49.7811 46.524 49.6733 46.571C49.5655 46.6179 49.4686 46.6867 49.3888 46.773ZM26.3589 50.1979C25.5934 51.0085 25.6291 52.3062 26.451 53.0849C27.2672 53.8654 28.5556 53.8221 29.3192 53.0021C30.0865 52.1727 30.0583 50.8825 29.2326 50.1057C28.8433 49.7352 28.3412 49.5509 27.8428 49.5509H27.8353C27.2955 49.5509 26.7576 49.7691 26.3589 50.1979ZM44.4273 50.275C43.9891 50.7414 44.0098 51.4768 44.4725 51.915C44.9408 52.3551 45.6705 52.3326 46.1031 51.8661C46.5394 51.4035 46.5187 50.67 46.0542 50.228C45.8414 50.0234 45.5576 49.9095 45.2624 49.9101C45.1056 49.9101 44.9504 49.9425 44.8067 50.0053C44.663 50.0681 44.5339 50.1599 44.4273 50.275ZM32.287 52.0373C31.6024 52.7651 31.6363 53.9256 32.3641 54.6064C33.0995 55.3023 34.2355 55.2684 34.9182 54.5349C35.6047 53.8071 35.5765 52.6504 34.8467 51.9639C34.5137 51.6438 34.0693 51.4658 33.6073 51.4674C33.36 51.467 33.1151 51.5173 32.888 51.6154C32.6609 51.7134 32.4563 51.857 32.287 52.0373ZM38.5706 52.1276C38.0346 52.6956 38.0629 53.6096 38.6327 54.1513C39.2064 54.6948 40.1072 54.661 40.6451 54.0854C41.183 53.5175 41.1624 52.6072 40.5868 52.0636C40.3236 51.8132 39.974 51.6738 39.6107 51.6743C39.4155 51.6744 39.2224 51.7146 39.0435 51.7926C38.8645 51.8706 38.7036 51.9846 38.5706 52.1276Z" fill="url(#paint2_linear_171_3)"/>
<path d="M38.6703 7.24701C37.8221 7.41628 37.2729 8.23817 37.4422 9.09768C37.6115 9.94779 38.4371 10.5007 39.2834 10.3296C40.1298 10.1584 40.6771 9.3309 40.5078 8.48079C40.3573 7.72661 39.7085 7.21504 38.9806 7.21504C38.8764 7.21563 38.7725 7.22633 38.6703 7.24701ZM32.193 7.67395C31.529 7.77362 31.0645 8.39428 31.1623 9.06947C31.262 9.74279 31.8826 10.2036 32.5484 10.1077C33.2161 10.008 33.6806 9.38733 33.581 8.71213C33.5403 8.42074 33.3957 8.15385 33.1739 7.96066C32.952 7.76746 32.6677 7.66095 32.3735 7.66078C32.3131 7.66149 32.2528 7.66589 32.193 7.67395ZM44.9126 8.57483C43.9007 8.83438 43.2857 9.8688 43.5471 10.8938C43.8048 11.9132 44.8392 12.5338 45.851 12.2687C46.861 12.0091 47.4742 10.969 47.2146 9.95155C46.9946 9.08452 46.2253 8.51465 45.3828 8.51465C45.2241 8.51439 45.066 8.53461 44.9126 8.57483ZM25.567 9.65439C24.9915 9.90453 24.7226 10.576 24.9727 11.1609C25.2191 11.7402 25.8924 12.0053 26.4679 11.7571C27.0434 11.5051 27.3124 10.8318 27.0641 10.2525C26.9771 10.0476 26.8317 9.87271 26.6461 9.74966C26.4605 9.62662 26.2429 9.56079 26.0203 9.56036C25.8643 9.56015 25.71 9.59216 25.567 9.65439ZM50.4439 11.396C49.2045 11.7853 48.5029 13.1169 48.8941 14.3732C49.2816 15.6258 50.6094 16.3255 51.8488 15.9343C53.0957 15.5412 53.7879 14.2077 53.4004 12.957C53.0826 11.9376 52.1535 11.2869 51.1529 11.2869C50.9159 11.2869 50.679 11.3226 50.4439 11.396ZM19.5862 13.1507C19.3325 13.3543 19.1691 13.6496 19.1314 13.9727C19.0938 14.2958 19.1848 14.6208 19.385 14.8773C19.8044 15.4114 20.5736 15.4998 21.1002 15.0804C21.6306 14.6572 21.7227 13.8861 21.3033 13.3501C21.19 13.2048 21.0451 13.0873 20.8795 13.0065C20.7139 12.9257 20.5321 12.8836 20.3479 12.8837C20.0712 12.8847 19.8029 12.9788 19.5862 13.1507ZM54.9897 15.8383C53.6412 16.3405 52.9472 17.8414 53.4512 19.2049C53.9496 20.5666 55.4486 21.2587 56.7915 20.7565C58.14 20.2563 58.8321 18.7441 58.3318 17.3862C57.9406 16.3217 56.9475 15.6747 55.8943 15.6747C55.5934 15.6747 55.2869 15.7274 54.9897 15.8383ZM14.8354 17.6006C14.4953 17.8425 14.2651 18.2095 14.1952 18.621C14.1254 19.0325 14.2217 19.4549 14.463 19.7955C14.9633 20.5026 15.9375 20.67 16.6391 20.1679C17.3443 19.6638 17.5117 18.6821 17.0114 17.9749C16.8689 17.7696 16.6788 17.6019 16.4575 17.486C16.2361 17.37 15.99 17.3093 15.7401 17.3091C15.4153 17.3086 15.0987 17.4106 14.8354 17.6006ZM58.1513 21.396C56.7125 22.0223 56.0486 23.6887 56.6692 25.1425C57.2899 26.5907 58.9544 27.2583 60.3913 26.6358C61.8263 26.0114 62.492 24.33 61.8695 22.8856C61.4087 21.8041 60.3668 21.1628 59.274 21.1628C58.8979 21.1628 58.5161 21.2361 58.1513 21.396ZM11.5083 23.083C10.6281 23.6492 10.3592 24.819 10.9234 25.7142C11.482 26.6038 12.6518 26.869 13.5339 26.3067C14.4216 25.7462 14.6811 24.5632 14.1207 23.6717C13.7596 23.0981 13.1502 22.7859 12.5239 22.7859C12.176 22.7859 11.8243 22.8837 11.5083 23.083ZM59.9229 28.0671C58.6384 28.7084 58.1099 30.2826 58.7456 31.5747C59.3888 32.8837 60.9461 33.4047 62.2344 32.7633C63.5208 32.1239 64.0512 30.5553 63.4099 29.2538C62.9566 28.3304 62.0331 27.7962 61.0739 27.7962C60.6745 27.7961 60.2804 27.8888 59.9229 28.0671ZM9.74794 29.077C8.61008 29.7184 8.2057 31.1647 8.84704 32.312C9.48462 33.4536 10.9215 33.8655 12.0594 33.2204C13.1973 32.579 13.6016 31.1271 12.9621 29.9817C12.5277 29.2049 11.7302 28.7705 10.9046 28.7705H10.8952C10.5059 28.7705 10.1109 28.8702 9.74794 29.077ZM60.0114 34.9977C58.8791 35.6371 58.471 37.0891 59.1086 38.2382C59.7499 39.3855 61.1906 39.7823 62.3209 39.141C63.4588 38.4978 63.865 37.0552 63.2237 35.9061C62.7911 35.1293 61.9899 34.6911 61.1661 34.6911C60.7749 34.6911 60.3781 34.7889 60.0114 34.9977ZM9.83633 35.4547C8.55553 36.0923 8.0195 37.6608 8.65896 38.9661C9.29842 40.2638 10.8632 40.7942 12.1515 40.151C13.438 39.5096 13.9646 37.9354 13.3251 36.6377C12.87 35.7105 11.954 35.1764 11.0005 35.1764C10.6093 35.1764 10.2125 35.2666 9.83633 35.4547ZM11.6813 41.5841C10.2482 42.2048 9.57866 43.8786 10.2012 45.3325C10.8181 46.7788 12.4919 47.4446 13.9251 46.822C15.3563 46.1976 16.0184 44.52 15.3977 43.0718C14.9351 41.9922 13.895 41.3509 12.8023 41.3509C12.428 41.3509 12.0481 41.4242 11.6813 41.5841ZM58.5406 41.9095C57.6566 42.4718 57.3914 43.653 57.9538 44.5388C58.0851 44.7504 58.2572 44.9338 58.46 45.0783C58.6628 45.2229 58.8923 45.3257 59.1351 45.3808C59.378 45.4359 59.6294 45.4423 59.8748 45.3994C60.1201 45.3566 60.3545 45.2654 60.5643 45.1312C61.4463 44.5689 61.7153 43.3953 61.153 42.5C60.7919 41.9283 60.175 41.6142 59.5468 41.6142C59.1901 41.6147 58.841 41.7172 58.5406 41.9095ZM15.2792 47.4615C13.9326 47.9637 13.2405 49.4758 13.7408 50.8281C14.2429 52.1991 15.7419 52.88 17.0829 52.3759C18.4352 51.8719 19.1254 50.3767 18.6233 49.0075C18.2339 47.9524 17.2409 47.296 16.182 47.296C15.883 47.296 15.5764 47.3486 15.2792 47.4615ZM55.4335 48.0502C54.7264 48.5523 54.5628 49.5341 55.0612 50.2431C55.179 50.412 55.3291 50.5558 55.5028 50.6662C55.6765 50.7767 55.8704 50.8517 56.0732 50.8868C56.2761 50.922 56.4839 50.9166 56.6846 50.871C56.8854 50.8254 57.0751 50.7405 57.2428 50.6212C57.9444 50.119 58.1118 49.1391 57.6096 48.4226C57.3068 47.99 56.8234 47.7605 56.3344 47.7587C56.011 47.7591 55.6959 47.8611 55.4335 48.0502ZM20.2219 52.2838C18.9768 52.6731 18.2847 54.0047 18.674 55.2591C19.0634 56.5211 20.3817 57.2133 21.6268 56.8183C22.87 56.4309 23.5678 55.1012 23.1785 53.8467C22.8644 52.8273 21.9296 52.1747 20.9234 52.1747C20.6921 52.1747 20.4551 52.2104 20.2219 52.2838ZM50.9686 53.1376C50.4439 53.5608 50.3536 54.3338 50.7693 54.8642C50.8681 54.9912 50.9911 55.0973 51.1312 55.1763C51.2714 55.2553 51.4259 55.3056 51.5857 55.3244C51.7455 55.3431 51.9074 55.3298 52.0621 55.2854C52.2167 55.2409 52.361 55.1662 52.4864 55.0654C53.0149 54.6441 53.1052 53.8749 52.6895 53.3389C52.5756 53.1934 52.43 53.0757 52.2638 52.9949C52.0976 52.9141 51.9151 52.8722 51.7303 52.8725C51.4538 52.8728 51.1855 52.9662 50.9686 53.1376ZM26.2253 55.9494C25.2134 56.2108 24.6041 57.2452 24.8617 58.2646C25.1194 59.2934 26.1501 59.9027 27.1619 59.6432C28.1757 59.3818 28.7888 58.3492 28.5292 57.3242C28.3129 56.4628 27.5399 55.8892 26.6974 55.8892C26.5413 55.8892 26.3833 55.9099 26.2253 55.9494ZM45.6065 56.4628C45.031 56.7111 44.764 57.3844 45.0123 57.9637C45.2643 58.5505 45.9319 58.8138 46.5074 58.5655C47.0848 58.3154 47.3538 57.6402 47.1055 57.059C47.0174 56.8542 46.8713 56.6797 46.6851 56.557C46.499 56.4344 46.2809 56.3689 46.058 56.3688C45.9075 56.3688 45.7532 56.3989 45.6065 56.4628ZM32.7891 57.8866C31.9447 58.0577 31.3955 58.8909 31.5648 59.7391C31.7341 60.5967 32.5597 61.1478 33.4042 60.9767C34.2487 60.8055 34.8016 59.9761 34.6304 59.1185C34.4799 58.3737 33.8274 57.8565 33.0957 57.8565C32.9928 57.8563 32.8901 57.8664 32.7891 57.8866ZM39.5223 58.1085C38.8603 58.2101 38.3957 58.8345 38.4935 59.5059C38.5913 60.1811 39.2157 60.6419 39.8778 60.5441C40.5473 60.4444 41.0118 59.8238 40.9122 59.1486C40.8256 58.5354 40.3009 58.0972 39.6972 58.0972C39.6408 58.0972 39.5825 58.0991 39.5223 58.1085Z" fill="url(#paint3_linear_171_3)"/>
<path d="M34.5798 1.46319C34.5798 2.27568 35.2342 2.93018 36.0354 2.93018C36.8404 2.93018 37.4949 2.27568 37.4949 1.46319C37.4949 0.648819 36.8404 -4.57764e-05 36.0354 -4.57764e-05C35.2342 -4.57764e-05 34.5798 0.648819 34.5798 1.46319ZM27.2447 1.05695C26.4097 1.28076 25.9132 2.14027 26.1351 2.98286C26.3608 3.82732 27.2222 4.32195 28.0516 4.09814C28.8885 3.87244 29.3851 3.01105 29.1631 2.1666C28.9751 1.4613 28.345 1.00053 27.6567 1.00053C27.5212 1.00053 27.382 1.01933 27.2447 1.05695ZM42.9134 2.16847C42.6896 3.01105 43.1861 3.87244 44.0193 4.09814C44.8543 4.32383 45.7157 3.82732 45.9395 2.98473C46.1615 2.14215 45.6631 1.28264 44.8261 1.05695C44.6938 1.0205 44.5572 1.00215 44.4199 1.00241C44.0752 1.00275 43.7403 1.1174 43.4677 1.32841C43.1951 1.53941 43.0002 1.83485 42.9134 2.16847ZM19.4151 3.86116C18.3318 4.0925 17.6397 5.15514 17.871 6.25162C18.1005 7.3387 19.1631 8.0327 20.2446 7.80136C21.3279 7.57003 22.0181 6.49989 21.7868 5.40904C21.5874 4.45926 20.7599 3.81414 19.8364 3.81414C19.6972 3.81414 19.5562 3.82919 19.4151 3.86116ZM50.286 5.40904C50.0546 6.49989 50.7449 7.57003 51.8282 7.80136C52.9078 8.0327 53.9723 7.3387 54.1998 6.25162C54.4349 5.15514 53.7409 4.0925 52.6595 3.86304C52.52 3.83163 52.3775 3.81585 52.2345 3.81602C51.311 3.81602 50.4853 4.45926 50.286 5.40904ZM12.7422 8.61198C11.42 8.82262 10.5172 10.0639 10.7279 11.4049C10.9367 12.7365 12.178 13.6487 13.5001 13.438C14.8242 13.2274 15.727 11.9729 15.5182 10.6394C15.3282 9.43199 14.2995 8.58189 13.1278 8.58189C12.9999 8.58189 12.8719 8.59129 12.7422 8.61198ZM56.5565 10.6413C56.3496 11.9748 57.2505 13.2293 58.5726 13.4399C59.8929 13.6505 61.1399 12.7384 61.3468 11.4068C61.5593 10.0658 60.6509 8.8245 59.3343 8.61386C59.2064 8.59317 59.0767 8.58377 58.9506 8.58377C57.7789 8.58377 56.7483 9.43199 56.5565 10.6413ZM61.091 17.4685C60.9179 19.1386 62.1291 20.6376 63.7823 20.8144C65.4449 20.9912 66.9307 19.7724 67.1056 18.1023C67.2824 16.4228 66.0769 14.9332 64.4181 14.7564C64.309 14.7451 64.2037 14.7395 64.0965 14.7395C62.573 14.7395 61.2565 15.8981 61.091 17.4685ZM7.65472 14.7564C5.99025 14.9332 4.79033 16.4228 4.96524 18.1023C5.13827 19.7724 6.62218 20.9912 8.28666 20.8125C9.94549 20.6376 11.1529 19.1386 10.978 17.4685C10.8144 15.8981 9.50163 14.7395 7.97821 14.7395C7.871 14.7395 7.76381 14.7451 7.65472 14.7564ZM64.0193 25.4787C63.9234 27.3312 65.3359 28.9129 67.1677 29.0107C69.009 29.1048 70.5813 27.6829 70.6772 25.8304C70.7732 23.9684 69.355 22.3999 67.5213 22.3039C67.4611 22.3002 67.4009 22.2983 67.3407 22.2983C65.5841 22.2983 64.1134 23.6788 64.0193 25.4787ZM4.54579 22.3039C2.71581 22.3999 1.29584 23.9684 1.39364 25.8304C1.48956 27.6829 3.0638 29.1048 4.9013 29.0107C6.73881 28.9129 8.15127 27.3312 8.05535 25.4787C7.96131 23.6788 6.4924 22.2983 4.72636 22.2983C4.66618 22.2983 4.60598 22.3002 4.54579 22.3039ZM64.8168 34.1039C64.8168 36.1238 66.438 37.7619 68.4391 37.7619C70.4459 37.7619 72.0709 36.1238 72.0709 34.1076C72.0709 32.0783 70.4459 30.4552 68.4447 30.4552C66.438 30.4552 64.8168 32.0783 64.8168 34.1039ZM0 34.1076C0 36.1238 1.6325 37.7619 3.63175 37.7619C5.62724 37.7619 7.25226 36.1238 7.25226 34.1039C7.25226 32.0783 5.62724 30.4552 3.63175 30.4552C1.6325 30.4552 0 32.0783 0 34.1076ZM67.1677 39.2045C65.3359 39.3023 63.9234 40.8821 64.0193 42.7328C64.1171 44.5966 65.6857 46.0034 67.5213 45.9094C69.355 45.8116 70.7713 44.2449 70.6753 42.3811C70.5832 40.5925 69.1068 39.2007 67.3445 39.2007C67.2862 39.2007 67.2279 39.2026 67.1677 39.2045ZM1.39553 42.3811C1.29962 44.2449 2.71582 45.8116 4.54769 45.9094C6.39083 46.0053 7.9575 44.5966 8.05719 42.7328C8.15122 40.8821 6.73877 39.3023 4.90314 39.2045C4.84296 39.2026 4.78466 39.2007 4.72636 39.2007C2.96597 39.2007 1.48769 40.5925 1.39553 42.3811ZM63.7823 47.4008C62.1273 47.5758 60.9179 49.0747 61.091 50.7486C61.2677 52.4281 62.7611 53.6318 64.4162 53.4569C66.0769 53.2801 67.2824 51.7924 67.1056 50.111C66.942 48.5481 65.6293 47.3839 64.1021 47.3839C63.9986 47.3839 63.8914 47.3896 63.7823 47.4008ZM4.96524 50.111C4.79033 51.7924 5.99213 53.2801 7.65472 53.4569C9.31356 53.6318 10.8031 52.4281 10.978 50.7486C11.1529 49.0747 9.94549 47.5758 8.28666 47.4008C8.17757 47.3896 8.07037 47.3839 7.96317 47.3839C6.43599 47.3839 5.12699 48.5481 4.96524 50.111ZM58.5745 54.7772C57.2505 54.9897 56.3458 56.2404 56.5565 57.572C56.7671 58.9111 58.0103 59.812 59.3324 59.6014C60.6509 59.3907 61.5574 58.1475 61.3468 56.8084C61.1568 55.6047 60.1224 54.7471 58.9525 54.7471C58.8284 54.7471 58.7005 54.7584 58.5745 54.7772ZM10.7298 56.8084C10.5173 58.1475 11.4219 59.3926 12.7422 59.6014C14.0643 59.812 15.3076 58.9111 15.5201 57.572C15.727 56.2423 14.8242 54.9897 13.5001 54.7791C13.3704 54.7603 13.2443 54.749 13.1183 54.749C11.9485 54.749 10.916 55.6066 10.7298 56.8084ZM51.8282 60.412C50.7449 60.6433 50.0527 61.7172 50.2841 62.8024C50.5154 63.8989 51.5762 64.591 52.6595 64.3578C53.7409 64.1284 54.433 63.0601 54.1998 61.9636C54.0005 61.0195 53.1673 60.3668 52.242 60.3668C52.1028 60.366 51.964 60.3812 51.8282 60.412ZM17.8729 61.9655C17.6397 63.0601 18.3318 64.1284 19.4132 64.3597C20.4947 64.591 21.5573 63.8989 21.7868 62.8024C22.0181 61.7172 21.3279 60.6433 20.2446 60.412C20.1088 60.3812 19.97 60.366 19.8308 60.3668C18.9054 60.3668 18.0722 61.0195 17.8729 61.9655ZM44.0174 64.1171C43.1861 64.3428 42.6896 65.2042 42.9096 66.0486C43.1353 66.8893 43.9949 67.384 44.8261 67.1583C45.665 66.9345 46.1596 66.0749 45.9377 65.2305C45.8492 64.8962 45.6528 64.6006 45.379 64.3894C45.1053 64.1782 44.7694 64.0633 44.4236 64.0625C44.2864 64.0623 44.1497 64.0806 44.0174 64.1171ZM26.1351 65.2343C25.9132 66.075 26.4116 66.9345 27.2447 67.1583C28.0817 67.384 28.9393 66.8893 29.1631 66.0467C29.3851 65.2042 28.8885 64.3428 28.0516 64.1171C27.9204 64.0814 27.7851 64.0631 27.6491 64.0625C26.9608 64.0625 26.3232 64.5271 26.1351 65.2343ZM34.5798 66.752C34.5798 67.5307 35.1816 68.1626 35.9376 68.2134H36.1351C36.8931 68.1626 37.4949 67.5307 37.4949 66.7501C37.4949 65.9414 36.8404 65.285 36.0354 65.285C35.2342 65.285 34.5798 65.9414 34.5798 66.752Z" fill="url(#paint4_linear_171_3)"/>
</g>
<defs>
<linearGradient id="paint0_linear_171_3" x1="45.8856" y1="28.7493" x2="26.1251" y2="39.3391" gradientUnits="userSpaceOnUse">
<stop stop-color="#F79210"/>
<stop offset="0.5" stop-color="#F35C19"/>
<stop offset="1" stop-color="#F79210"/>
</linearGradient>
<linearGradient id="paint1_linear_171_3" x1="50.4972" y1="38.3853" x2="21.5456" y2="29.944" gradientUnits="userSpaceOnUse">
<stop stop-color="#F79210"/>
<stop offset="0.5" stop-color="#F35C19"/>
<stop offset="1" stop-color="#F79210"/>
</linearGradient>
<linearGradient id="paint2_linear_171_3" x1="50.2139" y1="48.3805" x2="21.6584" y2="20.032" gradientUnits="userSpaceOnUse">
<stop stop-color="#F79210"/>
<stop offset="0.5" stop-color="#F35C19"/>
<stop offset="1" stop-color="#F79210"/>
</linearGradient>
<linearGradient id="paint3_linear_171_3" x1="46.5086" y1="58.5659" x2="25.3067" y2="9.76922" gradientUnits="userSpaceOnUse">
<stop stop-color="#F79210"/>
<stop offset="0.5" stop-color="#F35C19"/>
<stop offset="1" stop-color="#F79210"/>
</linearGradient>
<linearGradient id="paint4_linear_171_3" x1="36.0351" y1="68.2168" x2="36.0351" y2="-0.00102332" gradientUnits="userSpaceOnUse">
<stop stop-color="#F79210"/>
<stop offset="0.5" stop-color="#F35C19"/>
<stop offset="1" stop-color="#F79210"/>
</linearGradient>
</defs>
</svg>
