<svg width="127" height="87" viewBox="0 0 127 87" fill="none" xmlns="http://www.w3.org/2000/svg">
<g style="mix-blend-mode:luminosity" clip-path="url(#clip0_151_113)">
<path d="M-3 86.9979H40.4124L41.0929 85.6386V45.7486L40.4124 43.7437L-3 86.9979Z" fill="#FEDD77"/>
<path d="M40.4129 86.9979H83.8258L82.6034 84.0828L42.8163 44.4406L40.4124 43.7437L40.4129 86.9979Z" fill="#FBAE42"/>
<path d="M-3 0.489258L40.4124 43.743L41.5169 41.5045V2.46422L40.4124 0.489258H-3Z" fill="#51BBE5"/>
<path d="M40.4128 0.489258V43.743L43.0697 42.4956L82.4623 3.59567L83.8257 0.489258H40.4128Z" fill="#139CD4"/>
<path d="M41.4762 43.0444L40.1747 43.7429L83.5881 86.9977L84.4402 85.0726V44.7584L83.5881 43.7429L82.6522 43.0444H41.4762Z" fill="#D13729"/>
<path d="M85.428 42.4951L83.5876 43.7431V86.9979L127 43.7431L125.103 42.4951H85.428Z" fill="#8F2319"/>
<path d="M83.5871 0.489258L40.1747 43.743H83.5876L84.4392 41.2227V2.0389L83.5871 0.489258Z" fill="#EB5246"/>
<path d="M83.5872 0.489258V43.743H127L83.5872 0.489258Z" fill="#AE291D"/>
</g>
<defs>
<clipPath id="clip0_151_113">
<rect width="130" height="87" fill="white" transform="translate(-3)"/>
</clipPath>
</defs>
</svg>
