<svg width="164" height="74" viewBox="0 0 164 74" fill="none" xmlns="http://www.w3.org/2000/svg">
<g style="mix-blend-mode:luminosity" clip-path="url(#clip0_149_59)">
<path d="M8.44481 54.0333L7.74983 55.739C7.49278 55.6064 7.20717 55.5685 6.83587 55.5685C5.83623 55.5685 5.05556 56.156 5.05556 57.3879V58.7241H7.83551V60.5435H5.05556V69.328H3.05628V60.5435H1.05701V58.7241H3.05628V57.3216C3.05628 55.161 4.59858 53.749 6.83587 53.749C7.51182 53.7585 7.98784 53.8438 8.44481 54.0333Z" fill="#808080"/>
<path d="M19.3361 64.0307C19.3361 67.2526 17.0512 69.6785 13.8619 69.6785C10.6726 69.6785 8.3877 67.2526 8.3877 64.0307C8.3877 60.8087 10.6726 58.3828 13.8619 58.3828C17.0512 58.3828 19.3361 60.8087 19.3361 64.0307ZM17.3368 64.0307C17.3368 61.6047 15.6422 60.2023 13.8619 60.2023C12.0816 60.2023 10.387 61.6047 10.387 64.0307C10.387 66.4566 12.0816 67.8591 13.8619 67.8591C15.6422 67.8591 17.3368 66.4471 17.3368 64.0307Z" fill="#808080"/>
<path d="M20.9451 69.3278V58.7334H22.8587V60.4676H22.9443C23.3823 59.2546 24.9246 58.4775 26.0289 58.4775C26.6763 58.4775 27.1143 58.5628 27.5236 58.7334L26.762 60.5907C26.4764 60.4865 26.1337 60.4391 25.6957 60.4391C24.3248 60.4391 22.9348 61.5858 22.9348 63.5284V69.3278H20.9451Z" fill="#808080"/>
<path d="M35.0828 55.7485V60.6572H41.4709V62.5145H35.0828V67.4232H42.1659V69.3279H33.0835V53.8438H42.1659V55.7485H35.0828Z" fill="#808080"/>
<path d="M46.0979 60.2023H46.1836C46.7453 59.2262 48.0972 58.3828 49.5538 58.3828C52.2671 58.3828 53.619 60.2212 53.619 62.8366V69.3279H51.6197V63.1399C51.6197 60.9319 50.5154 60.2023 48.9921 60.2023C47.2499 60.2023 46.1931 61.8416 46.1931 63.4716V69.3279H44.1938V58.7334H46.1074V60.2023H46.0979Z" fill="#808080"/>
<path d="M56.5894 66.1063V60.5437H54.7234V58.7243H56.5894V55.4834H58.5887V58.7243H61.1972V60.5437H58.5887V65.9546C58.5887 67.1487 59.0837 67.6888 60.0262 67.6888C60.3975 67.6888 60.6546 67.6414 60.9402 67.5182L61.6352 69.224C61.1782 69.423 60.7022 69.5082 60.0262 69.5082C57.7889 69.4988 56.5894 68.2669 56.5894 66.1063Z" fill="#808080"/>
<path d="M62.8918 69.3278V58.7334H64.8054V60.4676H64.8911C65.3291 59.2546 66.8714 58.4775 67.9757 58.4775C68.6231 58.4775 69.061 58.5628 69.4704 58.7334L68.7088 60.5907C68.4232 60.4865 68.0805 60.4391 67.6425 60.4391C66.2716 60.4391 64.8816 61.5858 64.8816 63.5284V69.3278H62.8918Z" fill="#808080"/>
<path d="M69.5179 64.0307C69.5179 61.0267 71.6029 58.3828 74.7351 58.3828C77.9054 58.3828 79.9523 60.6097 79.9523 64.0307C79.9523 64.1823 79.9332 64.4002 79.9332 64.4002H71.5267C71.6315 66.6461 73.269 67.8591 74.916 67.8591C76.087 67.8591 77.258 67.3852 77.8292 66.0396L79.6095 66.7788C78.9812 68.295 77.4103 69.6785 74.9636 69.6785C71.6886 69.669 69.5179 67.2242 69.5179 64.0307ZM74.6875 60.2023C73.2118 60.2023 72.0408 61.1973 71.641 62.7514H77.8102C77.7531 61.8227 76.9724 60.2023 74.6875 60.2023Z" fill="#808080"/>
<path d="M83.4653 67.8591H83.3797L83.4653 69.3279V73.9997H81.4661V58.7334H83.3797V60.2023H83.4653C84.0746 59.2262 85.398 58.3828 87.0926 58.3828C89.7869 58.3828 92.1574 60.7803 92.1574 64.0307C92.1574 67.281 89.7869 69.6785 87.0926 69.6785C85.398 69.669 84.0746 68.8256 83.4653 67.8591ZM90.1582 64.0307C90.1582 61.6521 88.5492 60.2023 86.7689 60.2023C84.9886 60.2023 83.3797 61.6047 83.3797 64.0307C83.3797 66.4566 84.9886 67.8591 86.7689 67.8591C88.5492 67.8591 90.1582 66.4092 90.1582 64.0307Z" fill="#808080"/>
<path d="M93.6616 69.3278V58.7334H95.5752V60.4676H95.6609C96.0988 59.2546 97.6411 58.4775 98.7455 58.4775C99.3929 58.4775 99.8308 58.5628 100.24 58.7334L99.4786 60.5907C99.193 60.4865 98.8502 60.4391 98.4123 60.4391C97.0414 60.4391 95.6514 61.5858 95.6514 63.5284V69.3278H93.6616Z" fill="#808080"/>
<path d="M100.288 64.0307C100.288 61.0267 102.373 58.3828 105.505 58.3828C108.675 58.3828 110.722 60.6097 110.722 64.0307C110.722 64.1823 110.703 64.4002 110.703 64.4002H102.297C102.401 66.6461 104.039 67.8591 105.686 67.8591C106.857 67.8591 108.028 67.3852 108.599 66.0396L110.379 66.7788C109.751 68.295 108.19 69.6785 105.734 69.6785C102.458 69.669 100.288 67.2242 100.288 64.0307ZM105.457 60.2023C103.982 60.2023 102.811 61.1973 102.411 62.7514H108.58C108.523 61.8227 107.733 60.2023 105.457 60.2023Z" fill="#808080"/>
<path d="M114.235 60.2023H114.321C114.883 59.2262 116.234 58.3828 117.691 58.3828C120.404 58.3828 121.756 60.2212 121.756 62.8366V69.3279H119.757V63.1399C119.757 60.9319 118.653 60.2023 117.129 60.2023C115.387 60.2023 114.33 61.8416 114.33 63.4716V69.3279H112.331V58.7334H114.245L114.235 60.2023Z" fill="#808080"/>
<path d="M123.27 64.0307C123.27 61.0267 125.355 58.3828 128.487 58.3828C131.657 58.3828 133.704 60.6097 133.704 64.0307C133.704 64.1823 133.685 64.4002 133.685 64.4002H125.279C125.384 66.6461 127.021 67.8591 128.668 67.8591C129.839 67.8591 131.01 67.3852 131.581 66.0396L133.362 66.7788C132.733 68.295 131.162 69.6785 128.716 69.6785C125.441 69.669 123.27 67.2242 123.27 64.0307ZM128.44 60.2023C126.964 60.2023 125.793 61.1973 125.393 62.7514H131.562C131.505 61.8227 130.724 60.2023 128.44 60.2023Z" fill="#808080"/>
<path d="M142.739 69.3278V67.859H142.653C142.063 68.8351 140.74 69.6785 139.283 69.6785C136.541 69.6785 135.218 67.8401 135.218 65.2246V58.7334H137.217V64.893C137.217 67.1009 138.322 67.859 139.845 67.859C141.587 67.859 142.644 66.1912 142.644 64.5708V58.7334H144.643V69.3278H142.739Z" fill="#808080"/>
<path d="M146.862 69.3278V58.7334H148.775V60.4676H148.861C149.299 59.2546 150.841 58.4775 151.945 58.4775C152.593 58.4775 153.031 58.5628 153.44 58.7334L152.679 60.5907C152.393 60.4865 152.05 60.4391 151.612 60.4391C150.241 60.4391 148.851 61.5858 148.851 63.5284V69.3278H146.862Z" fill="#808080"/>
<path d="M153.726 66.6464L155.506 65.9072C156.068 67.2434 157.115 67.8973 158.4 67.8973C159.638 67.8973 160.533 67.2908 160.533 66.4095C160.533 65.8693 160.209 65.2818 159.076 65.007L156.924 64.4858C155.944 64.2489 154.078 63.4055 154.078 61.5482C154.078 59.6245 156.077 58.3926 158.295 58.3926C160.142 58.3926 161.751 59.236 162.399 60.8564L160.656 61.5671C160.247 60.5721 159.266 60.1646 158.219 60.1646C157.086 60.1646 156.115 60.6574 156.115 61.5292C156.115 62.202 156.677 62.5716 157.524 62.7611L159.628 63.2539C161.732 63.7467 162.56 65.0449 162.56 66.3431C162.56 68.2289 160.866 69.6693 158.372 69.6693C155.82 69.6693 154.363 68.1626 153.726 66.6464Z" fill="#808080"/>
<path d="M130.048 2.57764H135.875V41.3829H130.048V2.57764Z" fill="#808080"/>
<path d="M55.8372 15.7876C48.497 15.7876 42.5182 21.3407 42.5182 28.988C42.5182 36.588 48.497 42.1884 55.8372 42.1884C63.1774 42.1884 69.1562 36.588 69.1562 28.988C69.1562 21.3312 63.1774 15.7876 55.8372 15.7876ZM55.8372 36.986C51.8196 36.986 48.3542 33.6882 48.3542 28.988C48.3542 24.2404 51.8196 20.9901 55.8372 20.9901C59.8548 20.9901 63.3202 24.2404 63.3202 28.988C63.3202 33.6882 59.8548 36.986 55.8372 36.986Z" fill="#808080"/>
<path d="M21.2687 19.8338V25.4343H34.7305C34.3306 28.5804 33.2739 30.8831 31.6649 32.4846C29.7037 34.4367 26.6382 36.5878 21.2687 36.5878C12.9764 36.5878 6.50258 29.9355 6.50258 21.6817C6.50258 13.4279 12.9764 6.78503 21.2687 6.78503C25.7432 6.78503 29.0087 8.53814 31.4174 10.784L35.3874 6.83241C32.0172 3.62944 27.5521 1.18457 21.2687 1.18457C9.91087 1.18457 0.37146 10.386 0.37146 21.6912C0.37146 32.9963 9.92039 42.1978 21.2687 42.1978C27.3998 42.1978 32.0172 40.1983 35.6349 36.4457C39.3574 32.7405 40.5093 27.5475 40.5093 23.34C40.5093 22.0418 40.4046 20.8383 40.2047 19.8433H21.2687V19.8338Z" fill="#808080"/>
<path d="M151.85 36.9857C148.889 36.9857 146.776 35.64 145.414 32.9867L163.151 25.6805L162.551 24.1833C161.447 21.2361 158.076 15.7778 151.193 15.7778C144.357 15.7778 138.683 21.1319 138.683 28.9782C138.683 36.3792 144.31 42.1787 151.85 42.1787C157.934 42.1787 161.447 38.4734 162.903 36.3318L158.381 33.3278C156.877 35.5358 154.82 36.9857 151.85 36.9857ZM151.403 20.8855C153.716 20.8855 155.677 22.0322 156.325 23.6905L144.472 28.5897C144.319 23.482 148.432 20.8855 151.403 20.8855Z" fill="#808080"/>
<path d="M120.499 18.7347H120.299C118.995 17.1806 116.482 15.7876 113.312 15.7876C106.676 15.7876 100.602 21.5871 100.602 29.0449C100.602 36.4458 106.685 42.1979 113.312 42.1979C116.472 42.1979 118.986 40.7954 120.299 39.1939H120.499V41.0986C120.499 46.1495 117.786 48.8502 113.416 48.8502C109.846 48.8502 107.637 46.3011 106.733 44.15L101.659 46.2537C103.115 49.7505 106.98 54.0527 113.416 54.0527C120.252 54.0527 126.031 50.0537 126.031 40.3026V16.5836H120.499V18.7347ZM113.816 36.986C109.798 36.986 106.428 33.6314 106.428 29.0354C106.428 24.3826 109.798 20.9806 113.816 20.9806C117.786 20.9806 120.899 24.3826 120.899 29.0354C120.899 33.6408 117.786 36.986 113.816 36.986Z" fill="#808080"/>
<path d="M84.8742 15.7876C77.534 15.7876 71.5552 21.3407 71.5552 28.988C71.5552 36.588 77.534 42.1884 84.8742 42.1884C92.2144 42.1884 98.1932 36.588 98.1932 28.988C98.1932 21.3312 92.2144 15.7876 84.8742 15.7876ZM84.8742 36.986C80.8566 36.986 77.3912 33.6882 77.3912 28.988C77.3912 24.2404 80.8566 20.9901 84.8742 20.9901C88.8918 20.9901 92.3572 24.2404 92.3572 28.988C92.3667 33.6882 88.9013 36.986 84.8742 36.986Z" fill="#808080"/>
</g>
<defs>
<clipPath id="clip0_149_59">
<rect width="163.179" height="74" fill="white"/>
</clipPath>
</defs>
</svg>
