<svg width="296" height="74" viewBox="0 0 296 74" fill="none" xmlns="http://www.w3.org/2000/svg">
<g style="mix-blend-mode:luminosity" clip-path="url(#clip0_149_2)">
<path d="M46.8037 0.0322266L34.4096 8.16349V51.7877C34.4096 55.8534 32.3735 59.5494 29.2305 61.7707C26.269 59.3646 24.6031 55.6686 24.6031 51.7877V49.3853C24.6031 46.9829 22.2006 44.392 22.2006 41.9896C22.2006 40.3263 23.3111 38.4783 24.0478 36.8151C24.418 36.0759 24.6031 35.3367 24.6031 34.5975C24.6031 31.8255 22.3857 29.6079 19.6092 29.6079C16.8327 29.6079 14.8004 31.8255 14.8004 34.5975C14.8004 35.3367 14.9855 36.2607 15.3557 36.8151C16.0961 38.4783 17.2029 40.3263 17.2029 41.9896C17.2029 44.392 14.8004 46.9829 14.8004 49.3853V51.7877C14.8004 56.223 16.0961 60.2886 18.4986 63.6187C13.5047 61.9555 9.80275 57.3318 9.80275 51.7877V49.3853C9.80275 46.9829 7.40019 44.392 7.40019 41.9896C7.40019 40.3263 8.51077 38.4783 9.25116 36.8151C9.61765 36.0759 9.80275 35.3367 9.80275 34.5975C9.80275 31.8255 7.58528 29.6079 4.80882 29.6079C2.22117 29.6079 0 31.8255 0 34.5975C0 35.3367 0.185097 36.2607 0.555292 36.8151C1.29568 38.4783 2.40256 40.3263 2.40256 41.9896C2.40256 44.392 0 46.9829 0 49.3853V51.7877C0 63.9883 9.98784 73.9676 22.2006 73.9676C34.4096 73.9676 44.4011 63.9883 44.4011 51.7877V12.9683L46.8037 11.3051L49.395 12.9683V51.2333C49.395 59.3646 46.9888 67.6844 37.5562 73.4132C47.1739 73.4132 59.0164 62.6947 59.1978 48.8309V8.16349L46.8037 0.0322266ZM19.7943 26.0929C17.0326 26.0929 14.8004 23.8642 14.8004 21.1033C14.8004 18.3424 17.0326 16.1137 19.7943 16.1137C22.5559 16.1137 24.7882 18.3424 24.7882 21.1033C24.7882 23.8642 22.5559 26.0929 19.7943 26.0929ZM19.7943 12.7835C17.0326 12.7835 14.8004 10.5548 14.8004 7.79389C14.8004 5.03295 17.0326 2.80425 19.7943 2.80425C22.5559 2.80425 24.7882 5.03295 24.7882 7.79389C24.7882 10.5548 22.5559 12.7835 19.7943 12.7835ZM4.99392 26.2777C2.23227 26.2777 0 24.049 0 21.2881C0 18.5272 2.23227 16.2985 4.99392 16.2985C7.75557 16.2985 9.98784 18.5272 9.98784 21.2881C9.98784 24.049 7.75557 26.2777 4.99392 26.2777ZM4.99392 12.9683C2.23227 12.9683 0 10.7396 0 7.97869C0 5.21776 2.23227 2.98905 4.99392 2.98905C7.75557 2.98905 9.98784 5.21776 9.98784 7.97869C9.98784 10.7396 7.75557 12.9683 4.99392 12.9683Z" fill="#FF6720"/>
<path d="M171.867 22.582C177.231 22.582 181.114 26.278 181.114 31.2714C181.114 34.7826 179.267 37.7394 175.935 39.2178L181.669 50.3096C181.854 50.4944 181.854 50.864 181.669 51.0488C181.484 51.2336 181.299 51.4184 181.114 51.4184H176.675C176.305 51.4184 175.935 51.2336 175.75 50.864L170.571 40.1418H166.129V50.6792C166.129 51.0488 165.762 51.4184 165.392 51.4184H161.32C160.95 51.4184 160.579 51.0488 160.579 50.6792V23.3212C160.579 22.9516 160.95 22.582 161.32 22.582H171.867ZM221.632 22.2124C226.811 22.2124 230.324 24.6148 231.805 29.2386C232.36 31.0866 232.545 32.565 232.545 37.0002C232.545 41.4355 232.36 42.9139 231.805 44.7619C230.324 49.2008 226.811 51.788 221.632 51.788C216.634 51.788 212.936 49.3856 211.455 44.7619C210.9 42.9139 210.715 41.4355 210.715 37.0002V36.4458C210.715 32.3802 210.9 30.9018 211.455 29.2386C213.121 24.6148 216.634 22.2124 221.632 22.2124ZM295.26 22.582C295.63 22.582 296 22.9516 296 23.3212V26.8324C296 27.202 295.63 27.5716 295.26 27.5716H282.681V34.2282H293.227C293.598 34.2282 293.964 34.5978 293.964 34.9674V38.4786C293.964 38.8482 293.598 39.2178 293.227 39.2178H282.681V46.0592H295.26C295.63 46.0592 296 46.4288 296 46.7984V50.3096C296 50.6792 295.63 51.0488 295.26 51.0488H277.872C277.501 51.0488 277.131 50.6792 277.131 50.3096V23.3212C277.131 22.9516 277.501 22.582 277.872 22.582H295.26ZM243.832 22.582C244.199 22.582 244.569 22.9516 244.569 23.3212V50.4944C244.569 50.864 244.199 51.2336 243.832 51.2336H239.76C239.39 51.2336 239.02 50.864 239.02 50.4944V23.3212C239.02 22.9516 239.39 22.582 239.76 22.582H243.832ZM190.18 23.3212L196.099 42.3595L201.834 23.3212C202.019 22.9516 202.204 22.7668 202.759 22.7668H206.646C206.831 22.7668 207.016 22.9516 207.202 22.9516C207.387 23.1364 207.387 23.3212 207.202 23.506L198.321 50.6792C198.136 51.0488 197.95 51.2336 197.58 51.2336H194.248C193.882 51.2336 193.512 51.0488 193.512 50.6792L184.816 23.506V22.9516C185.001 22.7668 185.186 22.7668 185.371 22.7668L189.255 22.582C189.625 22.582 189.995 22.7668 190.18 23.3212ZM171.867 27.7564H166.129V34.9674H171.867C174.269 34.9674 175.75 33.489 175.75 31.2714C175.75 29.0501 174.084 27.7564 171.867 27.7564ZM153.549 22.582C153.92 22.582 154.29 22.9516 154.29 23.3212V26.8324C154.29 27.202 153.92 27.5716 153.549 27.5716H140.97V34.2282H151.517C151.883 34.2282 152.254 34.5978 152.254 34.9674V38.4786C152.254 38.8482 151.883 39.2178 151.517 39.2178H140.97V46.0592H153.549C153.92 46.0592 154.29 46.4288 154.29 46.7984V50.3096C154.29 50.6792 153.92 51.0488 153.549 51.0488H136.161C135.791 51.0488 135.421 50.6792 135.421 50.3096V23.3212C135.421 22.9516 135.791 22.582 136.161 22.582H153.549ZM261.776 22.2124C266.214 22.2124 269.731 24.43 271.397 28.4957C271.582 28.8653 271.397 29.2386 271.027 29.4234L267.51 31.0866C267.325 31.2714 267.14 31.2714 266.955 31.0866C266.77 31.0866 266.584 30.9018 266.584 30.717C265.474 28.4957 263.997 27.3868 261.776 27.3868C259.369 27.3868 257.892 28.4957 257.152 30.9018C256.782 32.0106 256.597 33.1194 256.597 37.185V37.7394C256.597 41.4355 256.782 42.5443 257.152 43.4683C257.892 45.8744 259.554 46.9832 261.776 46.9832C263.997 46.9832 265.659 45.8744 266.584 43.4683C266.584 43.2835 266.77 43.0987 266.955 43.0987H267.51L271.027 44.7619C271.397 44.9504 271.582 45.32 271.397 45.6896C269.731 49.5704 266.214 51.9728 261.776 51.9728C256.782 51.9728 253.265 49.3856 251.784 44.9504C251.229 43.0987 251.047 41.6203 251.047 37.185V36.6306C251.047 32.7498 251.229 31.2714 251.784 29.4234C253.265 24.7996 256.782 22.2124 261.776 22.2124ZM118.77 22.2124C122.101 22.2124 125.614 23.3212 128.021 25.1692C128.391 25.5388 128.391 25.7236 128.206 26.278L126.17 29.2386C125.8 29.6082 125.429 29.6082 125.244 29.4234C123.027 27.9412 120.991 27.202 118.77 27.202C116.363 27.202 114.701 28.4957 114.701 30.5322C114.701 31.8258 115.256 33.3042 119.51 34.0434L120.991 34.2282C126.725 34.9674 129.501 37.9242 129.501 42.7291C129.501 48.2768 125.429 51.788 118.77 51.788C114.886 51.788 110.814 50.3096 108.412 47.9072C108.041 47.5376 108.041 47.168 108.226 46.7984L110.814 43.8379C110.999 43.6531 111.184 43.6531 111.369 43.6531C111.554 43.6531 111.74 43.6531 111.925 43.8379C113.591 45.1352 116.178 46.7984 119.325 46.7984C122.286 46.7984 124.134 45.32 124.134 43.0987C124.134 41.6203 123.578 40.1418 119.325 39.5874L117.844 39.4026C112.11 38.6634 109.148 35.7066 109.148 31.0866C108.963 25.7236 113.035 22.2124 118.77 22.2124ZM86.211 22.582C86.5812 22.582 86.9514 22.9516 86.9514 23.3212V41.0659C86.9514 44.5771 88.7986 46.7984 91.9453 46.7984C95.0882 46.7984 97.1243 44.5771 97.1243 41.0659V23.3212C97.1243 22.9516 97.4945 22.582 97.8647 22.582H101.752C102.118 22.582 102.488 22.9516 102.488 23.3212V41.0659C102.488 47.3528 98.2349 51.6032 91.9453 51.6032C85.6557 51.6032 81.3984 47.3528 81.3984 41.0659V23.3212C81.3984 22.9516 81.7686 22.582 82.1388 22.582H86.211ZM221.632 27.202C219.226 27.202 217.56 28.3109 216.819 30.717C216.449 31.641 216.264 32.9346 216.264 37.0002C216.264 41.0659 216.449 42.3595 216.819 43.2835C217.56 45.5048 219.226 46.7984 221.632 46.7984C224.034 46.7984 225.7 45.6896 226.441 43.2835C226.811 42.3595 226.996 41.0659 226.996 37.0002C226.996 32.9346 226.811 31.641 226.441 30.717C225.885 28.3109 224.219 27.202 221.632 27.202Z" fill="#464653"/>
</g>
<defs>
<clipPath id="clip0_149_2">
<rect width="296" height="74" fill="white"/>
</clipPath>
</defs>
</svg>
