<svg width="111" height="27" viewBox="0 0 111 27" fill="none" xmlns="http://www.w3.org/2000/svg">
<path fill-rule="evenodd" clip-rule="evenodd" d="M6.23282 10.192V5.19459C6.23282 3.95293 5.85304 3.6786 5.13052 3.6786C4.37221 3.6786 3.99306 3.95293 3.99306 5.19459V21.807C3.99306 23.048 4.37221 23.3236 5.13052 23.3236C5.85304 23.3236 6.23282 23.048 6.23282 21.807V16.4995H9.88625V22.1171C9.88625 25.3217 7.37028 26.2533 5.09537 26.2533C2.8556 26.2533 0.338379 25.3223 0.338379 22.1171V4.88386C0.338379 1.67863 2.8556 0.74707 5.09537 0.74707C7.37028 0.74707 9.88625 1.67863 9.88625 4.88386V10.192H6.23282ZM16.4348 22.6337C16.4348 23.5295 16.1234 23.5998 15.6413 23.5998C15.1586 23.5998 14.8485 23.5295 14.8485 22.6337V9.19327C14.8485 8.29623 15.1586 8.22844 15.6413 8.22844C16.1234 8.22844 16.4348 8.29623 16.4348 9.19327V22.6337ZM19.7436 9.12296C19.7436 7.0891 18.1579 5.81416 15.642 5.81416C13.126 5.81416 11.541 7.08847 11.541 9.12296V22.7028C11.541 24.736 13.126 26.011 15.642 26.011C18.1579 26.011 19.7436 24.7367 19.7436 22.7028V9.12296ZM21.1215 6.05584H24.4303V7.1933H24.5C24.9821 6.26425 25.8785 5.81542 26.7749 5.81542C29.3944 5.81542 29.3254 7.5034 29.3254 9.57305V16.3608H26.0159V9.84737C26.0159 9.29622 25.982 8.64149 25.2922 8.64149C24.4648 8.64149 24.4303 9.29622 24.4303 9.84737V25.7699H21.1215V6.05584ZM35.5983 14.0513H34.0127V9.19327C34.0127 8.29623 34.3222 8.22844 34.8055 8.22844C35.2876 8.22844 35.599 8.29623 35.599 9.19327L35.5983 14.0513ZM35.5983 18.0149V22.6331C35.5983 23.5289 35.287 23.5992 34.8049 23.5992C34.3215 23.5992 34.0121 23.5289 34.0121 22.6331V16.3601H38.9053V9.12296C38.9053 7.0891 37.3209 5.81416 34.8043 5.81416C32.2877 5.81416 30.702 7.08847 30.702 9.12296V22.7028C30.702 24.736 32.2877 26.011 34.8043 26.011C37.3202 26.011 38.9053 24.7367 38.9053 22.7028V18.0149H35.5983ZM40.4916 25.7699V1.2298H43.8003V25.7699H40.4916ZM49.3144 4.1607H50.1763C51.1066 4.1607 51.5542 4.40238 51.5542 5.98805V21.0142C51.5542 22.5992 51.1066 22.8409 50.1763 22.8409H49.3144V4.1607ZM45.661 25.7699H50.8655C53.6922 25.7699 55.2082 23.6682 55.2082 21.3243V6.77899C55.2082 2.47146 53.6916 1.2298 50.0727 1.2298H45.6603L45.661 25.7699ZM60.7913 4.1607H61.6532C62.4818 4.1607 63.0323 4.43628 63.0323 5.36721V9.81347C63.0323 10.7086 62.7567 11.3991 61.4812 11.3991H60.7907L60.7913 4.1607ZM60.7913 25.7699V14.3966C62.4818 14.3269 63.0323 14.9132 63.0323 16.3959C63.0323 19.2578 62.8597 22.9451 63.4799 25.7705H67.1333C66.547 22.3933 66.7542 18.9464 66.547 15.6715C66.4095 13.4317 64.6858 12.8806 63.0662 12.6747V12.6038C66.1691 12.2598 66.6845 10.7425 66.6845 8.91707V5.43501C66.6845 2.26431 64.8929 1.2298 61.9633 1.2298H57.1385V25.7699H60.7913ZM72.3034 15.9126L73.1985 5.71184H73.4414L74.1979 15.9126H72.3034ZM67.8565 25.7699H71.1653L71.9587 19.1184H74.5431L75.2324 25.7699H78.9203L76.1288 1.2298H70.6474L67.8565 25.7699ZM80.4376 25.7699L78.1965 1.2298H81.8857L82.6434 10.1575C82.8493 13.0181 83.0226 15.9126 83.0923 18.8416H83.2636C83.2636 15.637 83.5053 12.4657 83.6792 9.29622L84.504 1.2298H88.4676L89.2253 10.917C89.4669 13.9138 89.5021 16.1894 89.6044 18.8422H89.7783C89.88 16.4311 89.9158 13.777 90.1574 11.6402L91.0878 1.23043H94.0488L91.6037 25.7705H87.6402L87.0213 16.949C86.9171 13.7764 86.5724 10.6402 86.5724 7.46951H86.3998C86.0885 10.1575 86.0207 12.8806 85.7093 15.5692L84.6767 25.7705L80.4376 25.7699ZM104.772 5.26301C104.772 4.53923 104.804 3.6786 105.803 3.6786C107.01 3.6786 107.01 4.74638 107.01 5.74511V12.7419C107.01 13.4656 106.805 14.1901 105.943 14.1901C104.977 14.1901 104.772 13.605 104.772 12.7419L104.772 5.26301ZM101.116 13.605C101.116 16.9483 102.838 17.4982 104.287 17.4982C105.286 17.4982 106.356 17.0155 107.01 16.3275V21.3594C107.01 22.2201 106.872 22.9106 105.873 22.9106C104.873 22.9106 104.772 22.2201 104.772 21.3594V18.3256H101.116V20.7731C101.116 23.9777 102.357 25.8383 105.837 25.8383C109.251 25.8383 110.662 23.9432 110.662 20.9093V5.29691C110.662 2.33336 109.077 0.747702 105.942 0.747702C101.839 0.747702 101.116 3.02262 101.116 5.57374V13.605Z" fill="#808080"/>
</svg>
