<svg width="17" height="17" viewBox="0 0 17 17" fill="none" xmlns="http://www.w3.org/2000/svg">
<path d="M6.8 11.9H10.2C10.4408 11.9 10.6429 11.8184 10.8061 11.6552C10.9687 11.4926 11.05 11.2908 11.05 11.05V10.1788C11.05 9.93792 10.9687 9.73958 10.8061 9.58375C10.6429 9.42792 10.4408 9.35 10.2 9.35C9.95917 9.35 9.75743 9.43132 9.5948 9.59395C9.4316 9.75715 9.35 9.95917 9.35 10.2H7.65V6.8H9.35V6.82125C9.35 7.06208 9.4316 7.26042 9.5948 7.41625C9.75743 7.57208 9.95917 7.65 10.2 7.65C10.4408 7.65 10.6429 7.5684 10.8061 7.4052C10.9687 7.24257 11.05 7.04083 11.05 6.8V5.95C11.05 5.70917 10.9687 5.50715 10.8061 5.34395C10.6429 5.18132 10.4408 5.1 10.2 5.1H6.8C6.55917 5.1 6.35743 5.18132 6.1948 5.34395C6.0316 5.50715 5.95 5.70917 5.95 5.95V11.05C5.95 11.2908 6.0316 11.4926 6.1948 11.6552C6.35743 11.8184 6.55917 11.9 6.8 11.9ZM8.5 17C7.32417 17 6.21917 16.7767 5.185 16.3302C4.15083 15.8842 3.25125 15.2788 2.48625 14.5138C1.72125 13.7488 1.11577 12.8492 0.6698 11.815C0.223267 10.7808 0 9.67583 0 8.5C0 7.32417 0.223267 6.21917 0.6698 5.185C1.11577 4.15083 1.72125 3.25125 2.48625 2.48625C3.25125 1.72125 4.15083 1.11548 5.185 0.66895C6.21917 0.222983 7.32417 0 8.5 0C9.67583 0 10.7808 0.222983 11.815 0.66895C12.8492 1.11548 13.7488 1.72125 14.5138 2.48625C15.2788 3.25125 15.8842 4.15083 16.3302 5.185C16.7767 6.21917 17 7.32417 17 8.5C17 9.67583 16.7767 10.7808 16.3302 11.815C15.8842 12.8492 15.2788 13.7488 14.5138 14.5138C13.7488 15.2788 12.8492 15.8842 11.815 16.3302C10.7808 16.7767 9.67583 17 8.5 17Z" fill="white"/>
</svg>
