<svg width="452" height="380" viewBox="0 0 452 380" fill="none" xmlns="http://www.w3.org/2000/svg">
<path d="M90.347 0.344238H366.518C370.695 0.344238 374.699 1.93215 377.654 4.75865C380.604 7.58515 382.262 11.4186 382.262 15.416V32.0568H74.6018V15.416C74.6018 11.4186 76.261 7.58515 79.2135 4.75865C82.1663 1.93215 86.1715 0.344238 90.347 0.344238Z" fill="#1C85E8"/>
<path d="M74.6018 32.0566H382.262V299.008C382.262 302.626 381.52 306.209 380.073 309.551C378.625 312.894 376.509 315.932 373.833 318.49C371.163 321.049 367.988 323.078 364.497 324.463C361.002 325.847 357.26 326.56 353.48 326.56H103.386C99.606 326.56 95.8629 325.847 92.3709 324.463C88.8784 323.078 85.7051 321.049 83.0326 318.49C80.3596 315.932 78.2396 312.894 76.7929 309.551C75.3467 306.209 74.6018 302.626 74.6018 299.008V32.0566Z" fill="url(#paint0_linear_53_104)"/>
<path d="M275.62 221.42H191.233V260.65H275.62V221.42Z" fill="#FFCCB3"/>
<path d="M190.736 245.607C180.84 254.928 176.946 300.833 177.467 326.561H295.276C295.276 326.561 295.064 270.456 286.133 251.55C277.919 234.163 264.266 259.811 190.736 245.607Z" fill="#1F2D49"/>
<path d="M261.441 42.8852C261.441 42.8852 271.216 32.2124 290.189 30.6597C309.163 29.107 314.84 45.0145 314.029 54.7879C313.218 64.5612 298.349 84.7468 301.323 93.2871C304.297 101.827 290.312 97.6866 288.788 80.6061C287.264 63.5259 281.587 39.7174 266.177 48.2572L261.441 42.8852Z" fill="#080B09"/>
<path d="M264.408 37.8891C264.408 37.8891 266.746 36.5924 268.439 39.6172C270.132 42.642 273.293 48.7841 269.286 50.4123C265.279 52.0409 264.408 37.8891 264.408 37.8891Z" fill="#1C85E8"/>
<path d="M210.209 136.254C210.209 136.254 225.366 152.539 220.325 157.762C210.341 168.498 183.787 188.675 175.086 195.354C174.711 195.629 174.282 195.83 173.824 195.946C173.367 196.062 172.89 196.09 172.422 196.029C171.953 195.967 171.501 195.818 171.094 195.589C170.685 195.359 170.329 195.055 170.044 194.694L149.47 168.8C148.665 167.804 148.29 166.55 148.421 165.296C148.553 164.043 149.18 162.885 150.175 162.061L190.028 129.165L210.209 136.254Z" fill="#1C85E8"/>
<path d="M186.281 156.957C186.281 156.957 167.391 167.704 165.689 189.297L169.451 193.923C169.451 193.923 171.813 197.863 175.087 195.353C178.36 192.843 193.502 181.233 193.502 181.233L186.281 156.957Z" fill="#0E66AF"/>
<path d="M203.942 165.144C215.724 165.144 225.276 156.001 225.276 144.722C225.276 133.444 215.724 124.301 203.942 124.301C192.159 124.301 182.608 133.444 182.608 144.722C182.608 156.001 192.159 165.144 203.942 165.144Z" fill="#1C85E8"/>
<path d="M148.389 208.736L129.745 185.105L147.394 171.989L150.161 169.857L169.5 194.067L166.133 196.385L148.389 208.736Z" fill="#FFCCB3"/>
<path d="M166.132 196.385C161.138 189.985 151.746 177.476 147.394 171.989L150.16 169.857L169.451 193.922L166.132 196.385Z" fill="#FF967C"/>
<path d="M138.783 212.014C147.337 212.014 154.27 205.376 154.27 197.189C154.27 189.001 147.337 182.364 138.783 182.364C130.23 182.364 123.296 189.001 123.296 197.189C123.296 205.376 130.23 212.014 138.783 212.014Z" fill="#FFCCB3"/>
<path d="M151.896 189.214C151.896 189.214 101.938 118.985 99.6288 113.021C97.3814 107.197 85.5813 121.213 85.5813 121.213L124.246 201.963L151.896 189.214Z" fill="#FFCCB3"/>
<path d="M220.673 91.278L214.668 131.359C214.668 131.359 213.091 136.679 220.088 137.484C227.085 138.289 242.004 136.49 247.332 131.055C252.661 125.619 250.797 122.926 250.797 122.926L239.496 79.4226L220.673 91.278Z" fill="#FFCCB3"/>
<path d="M219.839 96.464L234.529 91.4971L216.329 117.318L219.839 96.464Z" fill="#FF967C"/>
<path d="M204.053 41.7696C204.053 41.7696 191.449 70.1166 198.018 89.5449C202.301 102.215 211.63 104.493 232.995 94.9981C252.584 86.2921 257.672 79.7062 257.672 79.7062L260.561 48.1064C260.561 48.1064 216.852 16.5035 204.053 41.7696Z" fill="#FFCCB3"/>
<path d="M214.562 119.835C214.562 119.835 198.417 124.128 195.141 126.637C191.864 129.147 189.481 149.541 184.638 159.615C177.469 174.528 172.828 182.462 184.872 198.851C192.136 208.736 189.666 233.866 189.666 233.866H278.109C275.429 184.453 287.286 126.202 287.286 126.202L247.371 117.398C238.371 118.883 214.562 119.835 214.562 119.835Z" fill="#1C85E8"/>
<path d="M211.739 120.632C211.739 120.632 212.932 112.864 216.748 112.317C220.563 111.77 243.879 108.413 247.506 109.875C251.132 111.337 255.522 120.632 255.522 120.632C255.522 120.632 248.078 138.012 237.39 138.925C226.701 139.839 208.304 136.685 210.249 130.223C212.195 123.761 211.739 120.632 211.739 120.632Z" fill="#1C85E8"/>
<path d="M204.477 122.993C204.477 122.993 207.056 137.983 221.063 137.747C235.07 137.51 255.425 117.398 255.425 117.398" stroke="white" stroke-width="1.35709" stroke-miterlimit="10"/>
<path d="M267.94 144.722C267.94 144.722 254.021 153.531 258.122 162.419C262.732 172.413 262.692 198.152 249.461 199.765C225.853 202.643 236.11 206.595 247.026 209.12C257.942 211.645 253.472 211.648 253.472 222.472C253.472 230.176 278.765 236.856 278.108 230.631C273.71 188.983 291.991 162.611 267.94 144.722Z" fill="#0E66AF"/>
<path d="M202.929 83.4756L214.653 84.0307C214.612 84.1689 214.548 84.3579 214.456 84.5802C214.257 85.0625 213.926 85.6979 213.401 86.3131C212.361 87.5331 210.544 88.6925 207.406 88.3886C205.424 88.0251 204.297 86.7495 203.659 85.5418C203.339 84.9371 203.146 84.3535 203.032 83.9211C202.985 83.7435 202.952 83.5922 202.929 83.4756Z" fill="#E56441" stroke="#E56441"/>
<path d="M203.703 64.8411C204.193 63.1024 203.591 61.4352 202.359 61.1169C201.127 60.7985 199.73 61.95 199.24 63.6887C198.75 65.4273 199.352 67.0945 200.585 67.4129C201.817 67.7308 203.213 66.5797 203.703 64.8411Z" fill="#080B09"/>
<path d="M221.84 69.7914C222.33 68.0527 221.729 66.3855 220.496 66.0672C219.264 65.7493 217.867 66.9003 217.377 68.639C216.887 70.3777 217.489 72.0449 218.722 72.3632C219.954 72.6816 221.35 71.53 221.84 69.7914Z" fill="#080B09"/>
<path d="M199.117 55.8606L208.337 58.3978C208.497 58.4285 208.664 58.4021 208.806 58.3241C208.948 58.246 209.055 58.1215 209.109 57.9733C209.151 57.6948 209.133 57.4111 209.058 57.1393C208.983 56.867 208.85 56.6126 208.669 56.3912C208.488 56.1693 208.262 55.9851 208.004 55.8496C207.747 55.7141 207.463 55.6295 207.17 55.6019L199.251 54.8042C198.644 54.6473 198.357 55.6646 199.117 55.8606Z" fill="#080B09"/>
<path d="M230.639 63.4049L218.135 60.9559C218.248 60.5998 218.438 60.2701 218.692 59.9885C218.946 59.7066 219.259 59.479 219.611 59.3203C219.962 59.1615 220.345 59.0747 220.734 59.0659C221.123 59.0572 221.509 59.1264 221.868 59.2694L230.995 62.7178C231.298 62.7958 231.094 63.5229 230.639 63.4049Z" fill="#080B09"/>
<path d="M209.279 65.3381L203.349 72.983L205.582 76.0056" stroke="#E56441" stroke-width="2.23881" stroke-linecap="round"/>
<path d="M220.308 148.744C221.457 148.744 222.388 146.282 222.388 143.245C222.388 140.208 221.457 137.746 220.308 137.746C219.16 137.746 218.229 140.208 218.229 143.245C218.229 146.282 219.16 148.744 220.308 148.744Z" fill="white"/>
<path d="M316.146 224.401L285.314 226.819L280.051 205.43L273.71 188.983L306.158 185.266L310.214 203.673L316.146 224.401Z" fill="#FFCCB3"/>
<path d="M307.253 190.236L308.39 195.397L276.437 196.056L274.335 190.603L307.253 190.236Z" fill="#FF967C"/>
<path d="M281.982 166.404C293.764 166.404 303.315 157.261 303.315 145.983C303.315 134.704 293.764 125.561 281.982 125.561C270.199 125.561 260.648 134.704 260.648 145.983C260.648 157.261 270.199 166.404 281.982 166.404Z" fill="#1C85E8"/>
<path d="M277.867 136.382C277.867 136.382 300.351 132.849 302.26 139.722C306.385 153.542 311.455 175.728 312.689 186.338C312.73 186.789 312.678 187.244 312.536 187.676C312.393 188.107 312.162 188.508 311.857 188.854C311.552 189.2 311.178 189.485 310.758 189.692C310.337 189.899 309.878 190.024 309.406 190.061L275.544 192.828C274.233 192.944 272.926 192.576 271.891 191.799C270.855 191.021 270.17 189.894 269.975 188.648L260.805 148.9L277.867 136.382Z" fill="#1C85E8"/>
<path d="M211.911 39.0747C211.911 39.0747 212.708 52.8437 224.893 59.5159C224.893 59.5159 228.457 70.0764 241.756 72.5601C241.756 72.5601 240.97 62.8538 247.309 62.9564C258.072 63.131 252.778 78.7597 245.501 81.3236C240.556 83.0662 237.577 89.2508 244.918 103.346C261.775 97.5907 273.629 74.3483 268.981 48.5621C265.26 27.9122 238.516 21.1689 233.021 21.8415C233.021 21.8415 210.201 14.2953 198.186 34.9914C187.915 52.6832 197.507 63.2419 197.507 63.2419L202.981 47.4961C202.981 47.4961 205.268 49.0331 211.911 39.0747Z" fill="#080B09"/>
<path d="M316.26 275.424H234.597C233.018 275.424 231.493 274.871 230.308 273.871C229.124 272.871 228.362 271.491 228.166 269.99L220.628 212.406C220.514 211.533 220.595 210.647 220.866 209.806C221.137 208.965 221.591 208.189 222.2 207.529C222.808 206.869 223.556 206.341 224.394 205.979C225.232 205.617 226.141 205.43 227.06 205.43H323.798C324.717 205.43 325.625 205.617 326.463 205.979C327.302 206.341 328.049 206.869 328.658 207.529C329.266 208.189 329.721 208.965 329.991 209.806C330.263 210.647 330.344 211.533 330.229 212.406L322.692 269.99C322.495 271.491 321.733 272.871 320.549 273.871C319.365 274.871 317.84 275.424 316.26 275.424Z" fill="url(#paint1_linear_53_104)"/>
<path d="M275.621 244.84C278.787 244.84 281.353 242.383 281.353 239.353C281.353 236.323 278.787 233.866 275.621 233.866C272.455 233.866 269.889 236.323 269.889 239.353C269.889 242.383 272.455 244.84 275.621 244.84Z" fill="white"/>
<path d="M87.7047 125.826L82.7839 116.789C82.7839 116.789 65.3836 107.261 63.367 103.817C61.35 100.372 60.5575 90.5361 64.1275 88.0178C64.1275 88.0178 50.2449 78.0366 52.6082 76.0142C54.9637 73.8454 82.2392 93.2408 82.2392 93.2408C82.2392 93.2408 78.9185 78.9517 83.9648 78.2821C85.3318 83.8204 87.6736 89.0956 90.8899 93.8814C96.2029 101.745 96.8575 108.787 96.8575 108.787L103.119 120.291L87.7047 125.826Z" fill="#FFCCB3"/>
<path d="M65.0632 88.2703L73.4707 93.342" stroke="#FF967C" stroke-width="2.87188" stroke-linecap="round" stroke-linejoin="round"/>
<path d="M63.8101 94.0728L70.9453 98.3183" stroke="#FF967C" stroke-width="2.87188" stroke-linecap="round" stroke-linejoin="round"/>
<path d="M65.1968 100.345L69.9559 103.224" stroke="#FF967C" stroke-width="2.87188" stroke-linecap="round" stroke-linejoin="round"/>
<path d="M97.9515 20.0362C100.165 20.0362 101.959 18.319 101.959 16.2006C101.959 14.0822 100.165 12.365 97.9515 12.365C95.7385 12.365 93.9446 14.0822 93.9446 16.2006C93.9446 18.319 95.7385 20.0362 97.9515 20.0362Z" fill="white"/>
<path d="M114.135 20.0362C116.348 20.0362 118.142 18.319 118.142 16.2006C118.142 14.0822 116.348 12.365 114.135 12.365C111.922 12.365 110.128 14.0822 110.128 16.2006C110.128 18.319 111.922 20.0362 114.135 20.0362Z" fill="white"/>
<path d="M129.341 20.0362C131.554 20.0362 133.348 18.319 133.348 16.2006C133.348 14.0822 131.554 12.365 129.341 12.365C127.128 12.365 125.334 14.0822 125.334 16.2006C125.334 18.319 127.128 20.0362 129.341 20.0362Z" fill="white"/>
<path opacity="0.7" d="M8.97686 15.7302C25.0867 28.8818 67.5719 58.8684 121.53 60.301C122.634 60.3326 123.68 60.775 124.449 61.534C125.217 62.2927 125.646 63.3087 125.644 64.3655V146.205C125.645 147.249 125.226 148.253 124.474 149.009C123.722 149.766 122.695 150.216 121.606 150.268C105.383 151.041 43.864 150.951 3.10087 109.175C2.37388 108.425 1.97167 107.438 1.97487 106.415V18.8296C1.97441 18.053 2.20621 17.2922 2.64323 16.6375C3.08026 15.9832 3.70373 15.4619 4.44034 15.1361C5.1765 14.8098 5.99558 14.6923 6.79953 14.798C7.60349 14.9032 8.35889 15.2264 8.97686 15.7302Z" fill="#FEBB94"/>
<path d="M15.0884 39.8472C15.0884 39.8472 27.801 51.6714 45.1775 59.0163" stroke="white" stroke-width="7.4328" stroke-miterlimit="10" stroke-linecap="round"/>
<path opacity="0.4" d="M15.0884 54.1824C15.0884 54.1824 32.7809 69.9794 55.7961 75.8449" stroke="white" stroke-width="7.4328" stroke-miterlimit="10" stroke-linecap="round"/>
<path d="M12.4529 106.6V72.4165L24.9731 80.9927V116.002L12.4529 106.6Z" fill="white"/>
<path d="M33.5852 120.412V96.0566L46.1054 103.224V127.301L33.5852 120.412Z" fill="white"/>
<path d="M87.122 139.48V115.124L74.6018 113.483V137.56L87.122 139.48Z" fill="white"/>
<path d="M107.687 140.522V97.8794H95.167V140.244L107.687 140.522Z" fill="white"/>
<path d="M54.0938 131.085V119.949L66.614 123.32V135.425L54.0938 131.085Z" fill="white"/>
<g opacity="0.7">
<path d="M40.3344 185.311C56.4442 196.634 98.9293 226.183 152.887 221.49C153.412 221.431 153.944 221.481 154.447 221.636C154.95 221.791 155.413 222.048 155.803 222.389C156.193 222.73 156.502 223.148 156.709 223.614C156.916 224.079 157.015 224.582 157.002 225.087V306.927C156.974 308.01 156.558 309.051 155.822 309.875C155.087 310.698 154.077 311.254 152.964 311.449C136.74 314.063 69.2668 312.772 34.4579 279.423C34.0979 279.077 33.8129 278.667 33.6196 278.215C33.4263 277.763 33.3287 277.279 33.3324 276.791V189.205C33.3324 185.737 37.5771 183.373 40.3344 185.311Z" fill="#96BAFD"/>
</g>
<path d="M299.632 273.074C299.632 273.074 303.948 273.417 303.298 275.502C302.647 277.587 298.794 276.625 295.276 278.709C291.757 280.794 277.847 282.282 270.899 281.174C263.951 280.065 262.021 273.074 262.021 273.074C262.021 273.074 260.859 266.441 273.132 265.76C285.405 265.079 291.117 268.849 293.252 272.935L299.632 273.074Z" fill="#FFCCB3"/>
<path d="M267.238 266.792L269.889 273.616" stroke="#E56441" stroke-width="2.23881" stroke-linecap="round"/>
<path d="M274.103 265.68L276.754 272.505" stroke="#E56441" stroke-width="2.23881" stroke-linecap="round"/>
<path d="M281.353 266.258L284.003 273.082" stroke="#E56441" stroke-width="2.23881" stroke-linecap="round"/>
<path opacity="0.7" d="M430.243 191.968C407.774 210.313 348.512 252.142 273.246 254.14C271.707 254.184 270.246 254.801 269.174 255.86C268.103 256.919 267.505 258.336 267.507 259.81V373.967C267.506 375.423 268.09 376.824 269.139 377.879C270.188 378.935 271.62 379.563 273.139 379.635C295.769 380.713 381.58 380.588 438.443 322.315C439.456 321.268 440.019 319.892 440.015 318.465V196.292C440.015 195.208 439.689 194.148 439.08 193.234C438.471 192.321 437.6 191.594 436.574 191.14C435.548 190.685 434.403 190.521 433.285 190.668C432.163 190.815 431.109 191.266 430.243 191.968Z" fill="#1C85E8"/>
<path d="M421.723 225.609C421.723 225.609 403.99 242.103 379.752 252.349" stroke="white" stroke-width="10.368" stroke-miterlimit="10" stroke-linecap="round"/>
<path opacity="0.4" d="M421.723 245.605C421.723 245.605 397.041 267.64 364.937 275.822" stroke="white" stroke-width="10.368" stroke-miterlimit="10" stroke-linecap="round"/>
<path d="M410.197 155.854H341.601C340.255 155.854 338.923 156.108 337.679 156.601C336.436 157.094 335.306 157.817 334.354 158.728C333.403 159.639 332.648 160.72 332.133 161.91C331.618 163.1 331.353 164.376 331.353 165.664V185.979C331.353 187.267 331.618 188.543 332.133 189.733C332.648 190.923 333.403 192.005 334.354 192.915C335.306 193.827 336.436 194.549 337.679 195.042C338.923 195.535 340.256 195.789 341.601 195.789H365.954L373.137 202.667C373.811 203.311 374.722 203.673 375.675 203.673C376.628 203.673 377.54 203.311 378.213 202.667L385.396 195.789H410.197C412.914 195.789 415.525 194.755 417.444 192.915C419.368 191.076 420.445 188.58 420.445 185.979V165.664C420.445 163.063 419.368 160.568 417.444 158.728C415.525 156.888 412.914 155.854 410.197 155.854Z" fill="white"/>
<path d="M360.452 169.378C359.536 168.568 358.336 168.118 357.09 168.118C355.844 168.118 354.643 168.568 353.727 169.378L352.461 170.497L351.194 169.378C350.279 168.568 349.078 168.118 347.832 168.118C346.585 168.118 345.384 168.568 344.469 169.378C343.985 169.796 343.599 170.308 343.334 170.878C343.07 171.449 342.934 172.066 342.934 172.69C342.934 173.314 343.07 173.931 343.334 174.501C343.599 175.072 343.985 175.583 344.469 176.002L352.461 183.093L360.452 176.095C360.956 175.679 361.364 175.163 361.639 174.584C361.918 174.004 362.06 173.374 362.06 172.736C362.06 172.099 361.918 171.469 361.639 170.889C361.364 170.309 360.956 169.794 360.452 169.378Z" fill="#F4608A"/>
<path d="M369.376 173.521C369.445 172.662 369.793 171.989 370.416 171.503C371.039 171.018 371.85 170.775 372.844 170.775C373.508 170.775 374.081 170.892 374.557 171.125C375.047 171.349 375.414 171.658 375.657 172.05C375.909 172.442 376.037 172.886 376.037 173.381C376.037 173.96 375.863 174.46 375.51 174.88C375.166 175.3 374.718 175.571 374.163 175.693V175.762C374.795 175.912 375.299 176.206 375.67 176.645C376.041 177.084 376.229 177.659 376.229 178.368C376.229 178.901 376.101 179.382 375.844 179.812C375.592 180.232 375.212 180.564 374.704 180.807C374.195 181.049 373.586 181.17 372.876 181.17C371.841 181.17 370.993 180.914 370.329 180.4C369.665 179.877 369.294 179.139 369.216 178.186H370.503C370.572 178.747 370.81 179.205 371.222 179.559C371.63 179.914 372.18 180.092 372.862 180.092C373.545 180.092 374.062 179.924 374.411 179.587C374.773 179.242 374.956 178.798 374.956 178.257C374.956 177.556 374.708 177.052 374.223 176.743C373.733 176.435 372.995 176.281 372.01 176.281H371.676V175.216H372.029C372.922 175.207 373.604 175.067 374.063 174.796C374.521 174.516 374.75 174.086 374.75 173.507C374.75 173.012 374.58 172.615 374.237 172.316C373.907 172.017 373.426 171.868 372.803 171.868C372.198 171.868 371.708 172.017 371.337 172.316C370.966 172.615 370.746 173.017 370.682 173.521H369.376ZM379.619 179.335L377.984 183.104H377.091L378.158 179.335H379.619ZM387.673 172.078H382.537V175.272C382.762 174.973 383.092 174.731 383.531 174.544C383.971 174.347 384.443 174.25 384.951 174.25C385.762 174.25 386.422 174.413 386.926 174.74C387.434 175.057 387.796 175.473 388.011 175.987C388.236 176.491 388.346 177.028 388.346 177.598C388.346 178.271 388.218 178.873 387.952 179.406C387.691 179.938 387.283 180.358 386.738 180.666C386.202 180.974 385.533 181.129 384.732 181.129C383.71 181.129 382.881 180.876 382.244 180.372C381.612 179.868 381.223 179.195 381.09 178.354H382.391C382.519 178.887 382.785 179.302 383.197 179.602C383.605 179.901 384.122 180.05 384.745 180.05C385.519 180.05 386.097 179.83 386.491 179.391C386.88 178.943 387.072 178.354 387.072 177.626C387.072 176.897 386.88 176.337 386.491 175.945C386.097 175.543 385.524 175.342 384.764 175.342C384.246 175.342 383.792 175.464 383.398 175.707C383.018 175.94 382.743 176.262 382.565 176.673H381.31V170.957H387.673V172.078ZM389.958 180.078C391.195 179.125 392.166 178.345 392.867 177.738C393.573 177.122 394.164 176.482 394.64 175.819C395.13 175.146 395.373 174.488 395.373 173.843C395.373 173.236 395.217 172.76 394.906 172.414C394.604 172.059 394.109 171.882 393.426 171.882C392.762 171.882 392.244 172.083 391.873 172.484C391.511 172.876 391.319 173.404 391.287 174.067H390C390.041 173.021 390.371 172.213 390.994 171.644C391.621 171.074 392.428 170.789 393.412 170.789C394.416 170.789 395.213 171.055 395.795 171.587C396.39 172.12 396.688 172.853 396.688 173.787C396.688 174.562 396.445 175.319 395.959 176.057C395.478 176.785 394.933 177.43 394.319 177.99C393.706 178.541 392.918 179.186 391.96 179.924H396.995V180.989H389.958V180.078ZM405.048 171.966L400.98 181.101H399.633L403.761 172.092H398.113V170.999H405.048V171.966Z" fill="#1C85E8"/>
<path opacity="0.7" d="M7.7267 342.832H59.4443C60.459 342.832 61.4636 342.641 62.4013 342.269C63.3386 341.898 64.1906 341.353 64.908 340.666C65.6254 339.979 66.1943 339.164 66.5828 338.266C66.9713 337.369 67.171 336.407 67.171 335.436V320.12C67.171 319.149 66.9713 318.187 66.5828 317.29C66.1943 316.393 65.6254 315.577 64.908 314.89C64.1906 314.204 63.3386 313.659 62.4013 313.287C61.4636 312.915 60.459 312.724 59.4443 312.724H41.0852L35.6673 307.538C35.1602 307.053 34.4721 306.78 33.7548 306.78C33.0378 306.78 32.3498 307.053 31.8427 307.538L26.4248 312.724H7.7267C5.67718 312.724 3.71195 313.503 2.26299 314.89C0.814037 316.277 0 318.158 0 320.12V335.436C0 337.398 0.814037 339.279 2.26299 340.666C3.71195 342.053 5.67718 342.832 7.7267 342.832Z" fill="#1C85E8"/>
<path d="M32.0906 331.544C33.0251 330.826 33.7567 330.238 34.2867 329.78C34.8162 329.315 35.2615 328.833 35.622 328.333C35.9899 327.826 36.1736 327.329 36.1736 326.844C36.1736 326.386 36.0558 326.027 35.8204 325.766C35.5923 325.499 35.2207 325.365 34.7058 325.365C34.2056 325.365 33.8158 325.516 33.5363 325.819C33.2642 326.115 33.1167 326.513 33.0947 327.012H32.1236C32.1533 326.224 32.4035 325.615 32.8739 325.185C33.3448 324.755 33.9518 324.541 34.6948 324.541C35.4525 324.541 36.0522 324.741 36.4938 325.143C36.9423 325.544 37.1667 326.097 37.1667 326.801C37.1667 327.386 36.983 327.956 36.6152 328.513C36.2547 329.062 35.8424 329.548 35.3792 329.97C34.9156 330.386 34.3233 330.872 33.6023 331.428H37.3985V332.231H32.0906V331.544ZM38.3166 330.615V329.886L42.1897 324.752H43.3927V329.78H44.4963V330.615H43.3927V332.315H42.3996V330.615H38.3166ZM42.4435 325.756L39.4751 329.78H42.4435V325.756ZM45.4775 326.601C45.5288 325.953 45.7899 325.446 46.2608 325.079C46.7318 324.713 47.3424 324.53 48.0928 324.53C48.593 324.53 49.0232 324.618 49.3837 324.794C49.7515 324.963 50.0273 325.196 50.2115 325.492C50.4025 325.787 50.4982 326.122 50.4982 326.495C50.4982 326.932 50.3658 327.308 50.1011 327.625C49.8436 327.942 49.5051 328.146 49.0859 328.238V328.291C49.5642 328.403 49.943 328.625 50.2225 328.956C50.5019 329.287 50.6416 329.72 50.6416 330.256C50.6416 330.657 50.5459 331.019 50.3548 331.343C50.1634 331.661 49.8766 331.91 49.4941 332.093C49.1116 332.277 48.6516 332.368 48.1148 332.368C47.3351 332.368 46.6947 332.174 46.1944 331.787C45.6942 331.393 45.4147 330.837 45.3561 330.118H46.3268C46.3786 330.541 46.5586 330.886 46.8678 331.153C47.1766 331.421 47.5889 331.555 48.1038 331.555C48.6187 331.555 49.0085 331.428 49.2733 331.174C49.5454 330.914 49.6819 330.579 49.6819 330.171C49.6819 329.643 49.4977 329.262 49.1299 329.03C48.762 328.798 48.2068 328.681 47.4638 328.681H47.21V327.879H47.4748C48.1514 327.872 48.6626 327.766 49.0085 327.562C49.3544 327.351 49.5271 327.026 49.5271 326.59C49.5271 326.217 49.3983 325.917 49.1409 325.692C48.8908 325.467 48.5303 325.354 48.0593 325.354C47.6035 325.354 47.2357 325.467 46.9558 325.692C46.6763 325.917 46.511 326.22 46.4592 326.601H45.4775ZM56.4448 326.495C56.2831 325.713 55.7791 325.322 54.933 325.322C54.278 325.322 53.7887 325.565 53.4653 326.051C53.1414 326.53 52.9834 327.322 52.9907 328.428C53.1598 328.062 53.4397 327.777 53.8295 327.572C54.2267 327.361 54.6683 327.255 55.1534 327.255C55.9115 327.255 56.5144 327.481 56.9633 327.932C57.4196 328.382 57.6477 329.005 57.6477 329.801C57.6477 330.28 57.5483 330.71 57.3495 331.09C57.1585 331.47 56.8639 331.773 56.4668 331.998C56.0769 332.224 55.6023 332.336 55.0435 332.336C54.2853 332.336 53.6934 332.174 53.2665 331.85C52.84 331.526 52.5418 331.08 52.3727 330.509C52.2037 329.939 52.119 329.234 52.119 328.396C52.119 325.812 53.0608 324.52 54.944 324.52C55.6651 324.52 56.2313 324.706 56.6436 325.079C57.0554 325.453 57.2982 325.924 57.3715 326.495H56.4448ZM54.944 328.069C54.6275 328.069 54.3297 328.132 54.0503 328.259C53.7704 328.379 53.5423 328.565 53.3659 328.819C53.1969 329.065 53.1121 329.368 53.1121 329.727C53.1121 330.263 53.2738 330.699 53.5977 331.037C53.9216 331.368 54.3847 331.534 54.988 331.534C55.5029 331.534 55.9115 331.382 56.213 331.08C56.5222 330.769 56.6766 330.354 56.6766 329.833C56.6766 329.284 56.5295 328.854 56.235 328.544C55.9409 328.228 55.5102 328.069 54.944 328.069Z" fill="white"/>
<path d="M283.003 330.088C283.003 330.088 299.496 326.783 307.037 319.125C317.029 308.978 319.334 296.81 330.281 295.559C347.461 293.595 357.42 351.655 378.277 343.8C399.134 335.945 394.205 292.587 406.615 285.238C415.163 280.176 419.607 295.232 431.577 291.304" stroke="white" stroke-width="10.368" stroke-miterlimit="10" stroke-linecap="round"/>
<path opacity="0.7" d="M120.688 282.447C133.017 285.816 161.861 291.838 199.656 287.684C200.264 287.602 200.882 287.646 201.47 287.816C202.057 287.984 202.599 288.274 203.057 288.664C203.516 289.054 203.881 289.534 204.126 290.073C204.371 290.611 204.491 291.193 204.477 291.781V347.616C204.449 348.849 203.968 350.032 203.119 350.957C202.269 351.883 201.106 352.493 199.833 352.678C186.376 354.439 146.419 358.206 116.643 345.9C115.881 345.577 115.236 345.046 114.79 344.373C114.343 343.7 114.115 342.915 114.135 342.118V287.385C114.135 284.148 117.539 281.586 120.688 282.447Z" fill="url(#paint2_linear_53_104)"/>
<path d="M10.1022 333.86H11.7963C12.111 333.859 12.4124 333.739 12.6346 333.527C12.8572 333.314 12.9823 333.025 12.9827 332.724V325.263C12.9823 324.962 12.8572 324.674 12.6346 324.461C12.4124 324.248 12.111 324.128 11.7963 324.128H10.1022C9.78753 324.128 9.4861 324.248 9.26393 324.461C9.04129 324.674 8.91623 324.962 8.91577 325.263V332.724C8.91623 333.025 9.04129 333.314 9.26393 333.527C9.4861 333.739 9.78753 333.859 10.1022 333.86Z" fill="white"/>
<path d="M17.5789 319.424C16.9013 319.424 16.5623 319.748 16.5623 321.37C16.5623 322.912 15.003 324.152 13.9998 324.792V332.828C15.085 333.309 17.2568 334.022 20.6289 334.022H21.7132C22.3527 334.022 22.9711 333.806 23.4599 333.412C23.9487 333.018 24.2762 332.471 24.3839 331.868L25.1429 327.651C25.2103 327.278 25.1919 326.896 25.0884 326.531C24.9853 326.166 24.8003 325.827 24.546 325.537C24.2913 325.248 23.9739 325.016 23.6161 324.856C23.2579 324.697 22.8676 324.614 22.4727 324.614H19.2733C19.6334 323.794 19.807 322.909 19.7818 322.019C19.7818 320.073 18.2568 319.424 17.5789 319.424V319.424Z" fill="white"/>
<path d="M66.5524 268.114C57.5627 265.08 50.2754 255.644 50.2754 247.039C50.2754 238.434 57.5627 233.918 66.5524 236.952V226.951C52.0294 222.049 40.2563 229.345 40.2563 243.247C40.2563 257.149 52.0294 272.392 66.5524 277.294C80.462 281.988 91.8416 275.49 92.7788 262.719L82.7662 259.34C82.0585 267.081 75.0721 270.99 66.5524 268.114Z" fill="white"/>
<path d="M69.8914 224.882V234.883C78.881 237.917 86.1684 247.353 86.1684 255.958C86.1684 256.408 86.1441 256.844 86.1052 257.271L96.1173 260.651C96.1586 260.087 96.1874 259.516 96.1874 258.929C96.1874 245.027 84.4139 229.783 69.8914 224.882Z" fill="#1C85E8"/>
<path d="M66.5527 268.114V277.294" stroke="white" stroke-width="2.42819" stroke-miterlimit="10"/>
<path d="M50.2754 247.039L40.2563 243.658" stroke="white" stroke-width="2.42819" stroke-miterlimit="10"/>
<path d="M108.723 248.469L127.314 251.85" stroke="white" stroke-width="10.368" stroke-miterlimit="10" stroke-linecap="round"/>
<path opacity="0.4" d="M108.723 276.353L127.314 279.735" stroke="white" stroke-width="10.368" stroke-miterlimit="10" stroke-linecap="round"/>
<path d="M108.723 262.694L135.432 267.553" stroke="white" stroke-width="10.368" stroke-miterlimit="10" stroke-linecap="round"/>
<g opacity="0.7">
<path d="M444.018 9.25858C427.907 20.5814 398.438 49.1341 334.119 58.6207C329.195 59.3468 327.351 62.7005 327.351 66.4063V144.469C327.379 145.552 327.795 146.593 328.531 147.416C329.266 148.24 330.276 148.796 331.389 148.99C347.613 151.604 410.092 136.348 447.454 105.633C451.022 102.7 451.022 97.7785 451.022 96.756V13.1532C451.022 9.68463 446.776 7.3207 444.018 9.25858Z" fill="url(#paint3_linear_53_104)"/>
</g>
<path d="M335.855 72.531V120.814C335.855 121.235 335.954 121.649 336.143 122.028C336.333 122.407 336.61 122.74 336.952 123.004C337.294 123.266 337.694 123.452 338.122 123.547C338.55 123.642 338.994 123.644 339.423 123.552C348.61 121.582 373.462 115.888 389.157 108.8C389.661 108.573 390.082 108.214 390.38 107.765C390.673 107.316 390.833 106.795 390.829 106.264V59.2444C390.833 58.7743 390.71 58.3117 390.471 57.8986C390.238 57.486 389.899 57.1369 389.482 56.883C389.07 56.6291 388.598 56.4787 388.108 56.4458C387.618 56.4129 387.127 56.4985 386.678 56.6949C377.933 60.5507 356.916 68.9734 338.636 69.7312C337.885 69.7654 337.177 70.0758 336.659 70.5972C336.141 71.1186 335.853 71.8114 335.855 72.531Z" fill="white"/>
<path d="M338.127 113.042V118.12C338.127 118.504 338.219 118.884 338.398 119.228C338.576 119.573 338.834 119.874 339.154 120.107C339.473 120.34 339.844 120.5 340.238 120.573C340.633 120.647 341.04 120.633 341.427 120.531L368.918 113.337C369.353 113.224 369.747 113.005 370.068 112.703C370.388 112.4 370.617 112.024 370.741 111.61C370.865 111.197 370.874 110.76 370.769 110.342C370.663 109.924 370.448 109.539 370.146 109.224L355.404 94.0444C355.138 93.772 354.818 93.5594 354.456 93.4226C354.094 93.2853 353.704 93.227 353.317 93.252C352.929 93.277 352.552 93.3844 352.214 93.5664C351.875 93.7488 351.583 94.0009 351.359 94.3048L338.605 111.6C338.294 112.022 338.127 112.525 338.127 113.042Z" fill="#1C85E8"/>
<path opacity="0.6" d="M366.156 101.132L374.406 109.511C374.672 109.781 375.015 109.969 375.391 110.05C375.767 110.131 376.161 110.103 376.522 109.968C378.96 109.057 384.434 106.997 387.205 105.856C387.553 105.712 387.847 105.474 388.057 105.171C388.263 104.868 388.373 104.514 388.373 104.151V96.2992C388.373 95.8984 388.236 95.5086 387.989 95.188L376.39 80.3149C376.179 80.0479 375.899 79.8391 375.579 79.7111C375.258 79.583 374.905 79.5401 374.562 79.5866C374.218 79.6335 373.893 79.7677 373.618 79.9759C373.348 80.1842 373.142 80.4583 373.018 80.7701L365.753 99.2017C365.624 99.5275 365.592 99.8809 365.666 100.222C365.734 100.563 365.908 100.878 366.156 101.132Z" fill="#1C85E8"/>
<path d="M358.913 88.0463C361.36 88.0463 363.343 86.1484 363.343 83.8068C363.343 81.4652 361.36 79.5674 358.913 79.5674C356.467 79.5674 354.484 81.4652 354.484 83.8068C354.484 86.1484 356.467 88.0463 358.913 88.0463Z" fill="#FEBB94"/>
<path d="M403.601 55.1192C414.966 49.602 425.905 43.3117 436.331 36.2974" stroke="white" stroke-width="10.368" stroke-miterlimit="10" stroke-linecap="round"/>
<path d="M403.601 73.4329C403.601 73.4329 411.049 69.9578 421.269 64.0222" stroke="white" stroke-width="10.368" stroke-miterlimit="10" stroke-linecap="round"/>
<path d="M403.601 91.3389C414.966 85.8213 425.905 79.5314 436.331 72.5171" stroke="white" stroke-width="10.368" stroke-miterlimit="10" stroke-linecap="round"/>
<path d="M403.601 111.442C414.966 105.925 425.905 99.6347 436.331 92.6204" stroke="white" stroke-width="10.368" stroke-miterlimit="10" stroke-linecap="round"/>
<path d="M342.172 137.476C344.406 137.476 346.217 135.743 346.217 133.604C346.217 131.466 344.406 129.732 342.172 129.732C339.938 129.732 338.127 131.466 338.127 133.604C338.127 135.743 339.938 137.476 342.172 137.476Z" fill="white"/>
<path d="M365.629 131.212C367.86 131.212 369.674 129.479 369.674 127.34C369.674 125.202 367.86 123.468 365.629 123.468C363.393 123.468 361.584 125.202 361.584 127.34C361.584 129.479 363.393 131.212 365.629 131.212Z" fill="white"/>
<path d="M386.784 124.294C389.019 124.294 390.829 122.561 390.829 120.422C390.829 118.283 389.019 116.55 386.784 116.55C384.553 116.55 382.739 118.283 382.739 120.422C382.739 122.561 384.553 124.294 386.784 124.294Z" fill="white"/>
<defs>
<linearGradient id="paint0_linear_53_104" x1="191.336" y1="-335.052" x2="342.776" y2="645.92" gradientUnits="userSpaceOnUse">
<stop stop-color="white"/>
<stop offset="1" stop-color="#94B9FF"/>
</linearGradient>
<linearGradient id="paint1_linear_53_104" x1="272.697" y1="205.263" x2="283.035" y2="354.695" gradientUnits="userSpaceOnUse">
<stop stop-color="white"/>
<stop offset="1" stop-color="#94B9FF"/>
</linearGradient>
<linearGradient id="paint2_linear_53_104" x1="157.057" y1="282.106" x2="170.431" y2="436.146" gradientUnits="userSpaceOnUse">
<stop stop-color="white"/>
<stop offset="1" stop-color="#94B9FF"/>
</linearGradient>
<linearGradient id="paint3_linear_53_104" x1="374.273" y1="-166.845" x2="459.47" y2="297.407" gradientUnits="userSpaceOnUse">
<stop stop-color="white"/>
<stop offset="1" stop-color="#94B9FF"/>
</linearGradient>
</defs>
</svg>
