<svg width="20" height="21" viewBox="0 0 20 21" fill="none" xmlns="http://www.w3.org/2000/svg">
<path d="M3.4464 17.4737C2.12176 16.0876 2.1959 13.7565 3.61176 12.2749L6.9237 8.80921L5.45187 7.26905L2.13993 10.7348C-0.145311 13.1261 -0.264795 16.8827 1.87322 19.1199C4.01124 21.3572 7.60114 21.2322 9.88638 18.8409L13.1983 15.3751L11.7265 13.835L8.41455 17.3007C6.9987 18.7823 4.77104 18.8599 3.4464 17.4737ZM7.61579 14.732L14.2397 7.80057L12.6904 6.17935L6.0665 13.1108L7.61579 14.732ZM10.4198 2.07048L7.10785 5.53619L8.57967 7.07635L11.8916 3.61064C13.3075 2.12905 15.5351 2.05146 16.8598 3.43761C18.1844 4.82375 18.1103 7.15483 16.6944 8.63642L13.3825 12.1021L14.8543 13.6423L18.1662 10.1766C20.4515 7.78524 20.571 4.02868 18.4329 1.79139C16.2949 -0.44589 12.705 -0.320858 10.4198 2.07048Z" fill="white"/>
</svg>
