<svg width="21" height="21" viewBox="0 0 21 21" fill="none" xmlns="http://www.w3.org/2000/svg">
<path d="M17.9025 20.685L14.8312 17.64L12.5212 19.95L11.7863 19.215C11.3837 18.8125 11.1825 18.3137 11.1825 17.7188C11.1825 17.1237 11.3837 16.625 11.7863 16.2225L16.2225 11.7863C16.625 11.3837 17.1238 11.1825 17.7188 11.1825C18.3137 11.1825 18.8125 11.3837 19.215 11.7863L19.95 12.5212L17.64 14.8313L20.685 17.9025C20.895 18.1125 21 18.3575 21 18.6375C21 18.9175 20.895 19.1625 20.685 19.3725L19.3725 20.685C19.1625 20.895 18.9175 21 18.6375 21C18.3575 21 18.1125 20.895 17.9025 20.685ZM21 4.2L9.0825 16.1175L9.21375 16.2225C9.61625 16.625 9.8175 17.1237 9.8175 17.7188C9.8175 18.3137 9.61625 18.8125 9.21375 19.215L8.47875 19.95L6.16875 17.64L3.0975 20.685C2.8875 20.895 2.6425 21 2.3625 21C2.0825 21 1.8375 20.895 1.6275 20.685L0.315 19.3725C0.105 19.1625 0 18.9175 0 18.6375C0 18.3575 0.105 18.1125 0.315 17.9025L3.36 14.8313L1.05 12.5212L1.785 11.7863C2.1875 11.3837 2.68625 11.1825 3.28125 11.1825C3.87625 11.1825 4.375 11.3837 4.7775 11.7863L4.8825 11.9175L16.8 0H21V4.2ZM5.1975 9.3975L0 4.2V0H4.2L9.3975 5.1975L5.1975 9.3975Z" fill="white"/>
</svg>
